<?xml version="1.0" encoding="utf-8"?>
<!-- Generator: Adobe Illustrator 16.0.0, SVG Export Plug-In . SVG Version: 6.00 Build 0)  -->
<!DOCTYPE svg PUBLIC "-//W3C//DTD SVG 1.1//EN" "http://www.w3.org/Graphics/SVG/1.1/DTD/svg11.dtd">
<svg version="1.1" id="Layer_1" xmlns="http://www.w3.org/2000/svg" xmlns:xlink="http://www.w3.org/1999/xlink" x="0px" y="0px"
	 width="132.5px" height="151.5px" viewBox="0 0 132.5 151.5" enable-background="new 0 0 132.5 151.5" xml:space="preserve">
<g>
	<defs>
		<rect id="SVGID_1_" x="-0.218" y="-0.036" width="132.5" height="151.5"/>
	</defs>
	<clipPath id="SVGID_2_">
		<use xlink:href="#SVGID_1_"  overflow="visible"/>
	</clipPath>
	<g clip-path="url(#SVGID_2_)">
		<defs>
			<rect id="SVGID_3_" x="-31.218" y="-1.036" width="182" height="152"/>
		</defs>
		<clipPath id="SVGID_4_">
			<use xlink:href="#SVGID_3_"  overflow="visible"/>
		</clipPath>
		<path clip-path="url(#SVGID_4_)" fill="#FFFFFF" d="M73.375,24.544c0,1.838-1.497,3.335-3.328,3.335
			c-1.832,0-3.339-1.497-3.339-3.335s1.507-3.332,3.339-3.332C71.878,21.212,73.375,22.707,73.375,24.544"/>
		<path clip-path="url(#SVGID_4_)" fill="#FFFFFF" d="M101.74,24.544c0,1.838-1.494,3.335-3.329,3.335
			c-1.831,0-3.325-1.497-3.325-3.335s1.494-3.332,3.325-3.332C100.246,21.212,101.74,22.707,101.74,24.544"/>
		<path clip-path="url(#SVGID_4_)" fill="#FFFFFF" d="M82.779,24.544c0,1.838-1.484,3.335-3.332,3.335
			c-1.828,0-3.329-1.497-3.329-3.335s1.501-3.332,3.329-3.332C81.295,21.212,82.779,22.707,82.779,24.544"/>
		<path clip-path="url(#SVGID_4_)" fill="#FFFFFF" d="M92.339,24.544c0,1.838-1.496,3.335-3.335,3.335
			c-1.832,0-3.328-1.497-3.328-3.335s1.496-3.332,3.328-3.332C90.843,21.212,92.339,22.707,92.339,24.544"/>
		<path clip-path="url(#SVGID_4_)" fill="#FFFFFF" d="M111.222,24.544c0,1.838-1.493,3.335-3.335,3.335
			c-1.838,0-3.327-1.497-3.327-3.335s1.489-3.332,3.327-3.332C109.729,21.212,111.222,22.707,111.222,24.544"/>
		<path clip-path="url(#SVGID_4_)" fill="#FFFFFF" d="M92.339,15c0,1.829-1.496,3.315-3.335,3.315c-1.832,0-3.328-1.486-3.328-3.315
			c0-1.844,1.496-3.341,3.328-3.341C90.843,11.66,92.339,13.156,92.339,15"/>
		<path clip-path="url(#SVGID_4_)" fill="#FFFFFF" d="M92.339,5.438c0,1.838-1.496,3.325-3.335,3.325
			c-1.832,0-3.328-1.487-3.328-3.325c0-1.835,1.496-3.332,3.328-3.332C90.843,2.105,92.339,3.603,92.339,5.438"/>
		<path clip-path="url(#SVGID_4_)" fill="#FFFFFF" d="M92.339,33.942c0,1.841-1.496,3.342-3.335,3.342
			c-1.832,0-3.328-1.501-3.328-3.342c0-1.828,1.496-3.325,3.328-3.325C90.843,30.617,92.339,32.114,92.339,33.942"/>
		<path clip-path="url(#SVGID_4_)" fill="#FFFFFF" d="M92.339,43.509c0,1.832-1.496,3.325-3.335,3.325
			c-1.832,0-3.328-1.493-3.328-3.325c0-1.841,1.496-3.329,3.328-3.329C90.843,40.18,92.339,41.668,92.339,43.509"/>
		<path clip-path="url(#SVGID_4_)" fill="#FFFFFF" d="M120.788,43.509c0,1.832-1.503,3.325-3.341,3.325
			c-1.832,0-3.332-1.493-3.332-3.325c0-1.841,1.5-3.329,3.332-3.329C119.285,40.18,120.788,41.668,120.788,43.509"/>
		<path clip-path="url(#SVGID_4_)" fill="#FFFFFF" d="M111.222,43.509c0,1.832-1.493,3.325-3.335,3.325
			c-1.838,0-3.327-1.493-3.327-3.325c0-1.841,1.489-3.329,3.327-3.329C109.729,40.18,111.222,41.668,111.222,43.509"/>
		<path clip-path="url(#SVGID_4_)" fill="#FFFFFF" d="M101.74,43.509c0,1.832-1.494,3.325-3.329,3.325
			c-1.831,0-3.325-1.493-3.325-3.325c0-1.841,1.494-3.329,3.325-3.329C100.246,40.18,101.74,41.668,101.74,43.509"/>
		<path clip-path="url(#SVGID_4_)" fill="#FFFFFF" d="M111.222,33.942c0,1.841-1.493,3.342-3.335,3.342
			c-1.838,0-3.327-1.501-3.327-3.342c0-1.828,1.489-3.325,3.327-3.325C109.729,30.617,111.222,32.114,111.222,33.942"/>
		<path clip-path="url(#SVGID_4_)" fill="#FFFFFF" d="M130.151,43.509c0,1.832-1.497,3.325-3.336,3.325
			c-1.845,0-3.321-1.493-3.321-3.325c0-1.841,1.477-3.329,3.321-3.329C128.654,40.18,130.151,41.668,130.151,43.509"/>
		<path clip-path="url(#SVGID_4_)" fill="#FFFFFF" d="M111.222,52.988c0,1.834-1.493,3.332-3.335,3.332
			c-1.838,0-3.327-1.498-3.327-3.332c0-1.838,1.489-3.325,3.327-3.325C109.729,49.663,111.222,51.15,111.222,52.988"/>
		<path clip-path="url(#SVGID_4_)" fill="#FFFFFF" d="M111.222,62.519c0,1.844-1.493,3.328-3.335,3.328
			c-1.838,0-3.327-1.484-3.327-3.328c0-1.829,1.489-3.319,3.327-3.319C109.729,59.2,111.222,60.689,111.222,62.519"/>
		<polygon clip-path="url(#SVGID_4_)" fill="#FFFFFF" points="3.782,99.002 11.777,99.002 11.777,81.811 17.781,76.673 
			35.479,99.002 45.182,99.002 23.571,72.264 45.182,52.919 35.372,52.919 11.777,73.76 11.777,52.919 3.782,52.919 		"/>
		<path clip-path="url(#SVGID_4_)" fill="#FFFFFF" d="M3.782,101.816v28.889c0,0,0.331,18.182,21.29,17.623
			c0,0,19.061,0.224,19.944-17.077V107.88h13.775v40.468h7.868V107.88h13.132v40.468h7.824V107.88h10.754v-6.063H37.551
			l-0.072,26.333c0,0,1.309,13.45-12.995,13.125c0,0-12.996,1.55-12.996-13.226l-0.042-26.232H3.782z"/>
		<polygon clip-path="url(#SVGID_4_)" fill="#FFFFFF" points="48.157,99.002 55.866,99.002 55.866,66.896 69.894,99.002 
			76.661,99.002 90.622,66.896 90.622,99.002 98.369,99.002 98.369,52.919 89.004,52.919 73.265,88.841 57.99,52.919 48.157,52.919 
					"/>
	</g>
</g>
</svg>
