<?xml version="1.0" encoding="utf-8"?>
<!-- Generator: Adobe Illustrator 16.0.0, SVG Export Plug-In . SVG Version: 6.00 Build 0)  -->
<!DOCTYPE svg PUBLIC "-//W3C//DTD SVG 1.1//EN" "http://www.w3.org/Graphics/SVG/1.1/DTD/svg11.dtd">
<svg version="1.1" id="Layer_1" xmlns="http://www.w3.org/2000/svg" xmlns:xlink="http://www.w3.org/1999/xlink" x="0px" y="0px"
	 width="281.67px" height="94.34px" viewBox="0 0 281.67 94.34" enable-background="new 0 0 281.67 94.34" xml:space="preserve">
<g>
	<defs>
		<rect id="SVGID_1_" x="0.196" y="-0.088" width="281.667" height="94.335"/>
	</defs>
	<clipPath id="SVGID_2_">
		<use xlink:href="#SVGID_1_"  overflow="visible"/>
	</clipPath>
	<g clip-path="url(#SVGID_2_)">
		<defs>
			<rect id="SVGID_3_" x="-23.473" y="-26.421" width="322.002" height="143.998"/>
		</defs>
		<clipPath id="SVGID_4_">
			<use xlink:href="#SVGID_3_"  overflow="visible"/>
		</clipPath>
		<path clip-path="url(#SVGID_4_)" fill="#FFFFFF" d="M175.096,55.308c0.117-0.057,1.018,3.166,1.018,3.166
			c-14.389,5.098-23.928,11.582-23.928,11.582S160.629,62.03,175.096,55.308"/>
		<path clip-path="url(#SVGID_4_)" fill="#FFFFFF" d="M177.215,67.144c0.082-0.021-0.297-3.834-0.297-3.834
			c-17.65,6.475-26.637,14.021-26.637,14.021S160.658,71.481,177.215,67.144"/>
		<path clip-path="url(#SVGID_4_)" fill="#FFFFFF" d="M176.652,76.847c0.033-0.012,0.576-4.721,0.496-4.686
			c-19.912,5.59-29.021,12.006-29.021,12.006S160.131,79.624,176.652,76.847"/>
		<path clip-path="url(#SVGID_4_)" fill="#FFFFFF" d="M174.857,82.042c0,0-5.568,12.02-33.276,10.584
			C141.582,92.626,150.146,86.735,174.857,82.042"/>
		<path clip-path="url(#SVGID_4_)" fill="#FFFFFF" d="M185.725,45.544l0.016-40.286h27.533v32.442
			C213.273,37.701,198.039,40.915,185.725,45.544"/>
		<path clip-path="url(#SVGID_4_)" fill="#FFFFFF" d="M185.725,50.687l0.012,4.6c14.672-4.348,27.523-6.375,27.523-6.375v-6.268
			C213.26,42.644,200.846,44.977,185.725,50.687"/>
		<path clip-path="url(#SVGID_4_)" fill="#FFFFFF" d="M185.725,64.995v-4.66c15.834-4.822,27.535-6.51,27.535-6.51v6.309
			C213.26,60.134,197.02,62.351,185.725,64.995"/>
		<path clip-path="url(#SVGID_4_)" fill="#FFFFFF" d="M185.736,69.946c11.123-2.775,27.523-4.951,27.523-4.951v7.131
			c0,0-12.891,0.957-27.535,3.191L185.736,69.946z"/>
		<path clip-path="url(#SVGID_4_)" fill="#FFFFFF" d="M185.725,80.204v10.791h27.535V76.948
			C213.26,76.948,201.477,77.81,185.725,80.204"/>
		<path clip-path="url(#SVGID_4_)" fill="#FFFFFF" d="M236.99,90.995V75.44c6.537-0.438,27.512-0.623,27.512-0.623v16.178H236.99z"
			/>
		<path clip-path="url(#SVGID_4_)" fill="#FFFFFF" d="M236.99,70.636v-7.998c13.883-0.998,27.512-0.955,27.512-0.955v8.346
			C264.502,70.028,251.939,69.964,236.99,70.636"/>
		<path clip-path="url(#SVGID_4_)" fill="#FFFFFF" d="M236.99,57.829l-0.008-7.084c12.645-1.271,27.52-1.285,27.52-1.285v7.4
			C264.502,56.86,250.322,56.845,236.99,57.829"/>
		<path clip-path="url(#SVGID_4_)" fill="#FFFFFF" d="M236.99,45.865v-7.06c14.637-1.678,27.512-1.551,27.512-1.551v7.398
			C264.502,44.652,253.549,44.525,236.99,45.865"/>
		<path clip-path="url(#SVGID_4_)" fill="#FFFFFF" d="M236.99,33.987c12.117-1.448,27.512-1.529,27.512-1.529v-10.09h16.412V5.259
			h-60.197v17.108h16.273V33.987z"/>
		<path clip-path="url(#SVGID_4_)" fill="#FFFFFF" d="M140.493,60.286h-25.685v5.607c0,6.447,0.808,11.414,2.43,14.922
			c1.617,3.496,5.068,6.348,10.298,8.627c0.188,0.078,2.092,0.969,5.685,1.898c0,0,0.689-6.42,7.645-16.102
			c0,0-0.285-1.221-0.372-4.459V60.286z"/>
		<path clip-path="url(#SVGID_4_)" fill="#FFFFFF" d="M174.895,31.252v-3.389c0-6.79-0.83-11.625-2.467-14.441
			c-1.648-2.838-5.008-5.199-10.068-7.068c-5.043-1.854-11.158-2.797-18.355-2.797c-6.571,0-12.18,0.855-16.818,2.578
			c-4.646,1.715-8.007,4.086-10.1,7.122c-2.073,3.044-3.111,7.846-3.111,14.403c0,4.564,0.734,8.306,2.19,11.229
			c1.495,2.927,3.354,5.225,5.587,6.876c2.248,1.664,6.819,4.338,13.74,7.996c6.906,3.633,11.23,6.23,12.998,7.777
			c0.533,0.447,1.301,1.27,1.92,3.689c6.391-5.393,13.412-9.818,22.238-14.139c-0.043-0.057-0.123-0.127-0.207-0.25
			c-2.678-3.41-10.982-8.646-23.305-14.586c-4.295-2.062-6.906-3.809-7.836-5.253c-0.999-1.438-1.48-3.581-1.48-6.421
			c0-2.201,0.426-3.862,1.289-4.952c0.867-1.088,2.11-1.639,3.813-1.639c1.539,0,2.631,0.418,3.299,1.227
			c0.664,0.811,0.99,2.708,0.99,5.669v6.368H174.895z"/>
		<path clip-path="url(#SVGID_4_)" fill-rule="evenodd" clip-rule="evenodd" fill="#010101" d="M61.101,60.108l-1.849-7.547
			l-11.268-3.115c-1.796,1.422-3.623,2.855-5.439,4.268c2.663,4.279,3.147,9.234,2.286,10.006
			c-6.15-3.229-4.049-13.945-3.351-15.059c3.764-2.102,6.543-2.551,10.58-2.528l-1.552-7.571l-3.384-2.429l3.384-3.599
			C61.125,40.094,62.62,53.853,61.101,60.108 M99.458,14.548c-5.942-2.303-11.84-4.361-18.812-5.551l2.621-5.773
			C78.936,0.944,67.29,1.28,58.922,2.005c-4.646-0.967-8.302-1.354-12.908-1.354c-1.043,1.4-2.134,2.686-3.174,4.078
			c-7.974-1.713-21.676,1.434-30.723,7.976l-1.065,7.002l0.695,0.691c-5.054,3.197-7.212,5.234-9.934,8.729
			c-0.331,3.662-0.655,7.328-0.971,10.983l6.272,0.104c3.591-4.166,8.021-7.1,11.995-9.239
			c-20.513,35.02,5.599,63.947,34.643,62.107c24.438-1.549,52.523-32.645,33.303-69.884l7.778-2.326L99.458,14.548z"/>
		<path clip-path="url(#SVGID_4_)" fill-rule="evenodd" clip-rule="evenodd" fill="#FFFFFF" d="M12.016,20.192l-0.386-0.668
			c42.207-30.309,83.659,26.454,48.042,62.135c-0.125,0.137-8.808,1.498-8.782,1.604C88.006,56.831,56.87-5.592,12.016,20.192"/>
		<path clip-path="url(#SVGID_4_)" fill-rule="evenodd" clip-rule="evenodd" fill="#FFFFFF" d="M1.943,39.54
			c19.903-21.716,43.772-20.375,55.467-0.879c-8.719-13.191-31.713-19.177-50.55,0.879H1.943z"/>
		<path clip-path="url(#SVGID_4_)" fill-rule="evenodd" clip-rule="evenodd" fill="#FFFFFF" d="M46.483,5.165
			c44.216,9.451,40.86,50.033,30.667,68.182c-1.451-0.201-2.172,1.906-0.402,2.371c1.836,0.385,2.436-1.791,1.157-2.193
			c14.677-27.092,7.82-61.04-28.325-72.09C87.221,4.22,99.711,43.628,88.4,66.579C77.189,89.354,53.208,99.948,29.233,86.183
			c20.645,8.59,43.234-5.834,46.165-34.395C78.304,24.039,56.957,8.007,46.483,5.165"/>
		<path clip-path="url(#SVGID_4_)" fill-rule="evenodd" clip-rule="evenodd" fill="#FFFFFF" d="M91.434,15.769
			c1.946-0.465,3.994-0.862,5.921-1.318c-5.407-2.082-10.959-3.896-17.123-4.972c-1.457,0.525-2.745,1.16-4.202,1.67
			C82.902,12.216,86.787,13.687,91.434,15.769"/>
		<path clip-path="url(#SVGID_4_)" fill-rule="evenodd" clip-rule="evenodd" fill="#FFFFFF" d="M75.693,10.552l-1.068-0.666
			l0.668-4.09l6.91-1.842l-2.247,4.965C79.957,8.919,75.904,10.708,75.693,10.552"/>
		<path clip-path="url(#SVGID_4_)" fill-rule="evenodd" clip-rule="evenodd" fill="#FFFFFF" d="M75.252,5.218l7.033-1.881
			c-4.249-1.66-15.613-1.682-21.184-0.75C65.922,3.009,70.621,3.841,75.252,5.218"/>
		<polygon clip-path="url(#SVGID_4_)" fill-rule="evenodd" clip-rule="evenodd" fill="#FFFFFF" points="92.234,16.239 
			98.447,14.946 94.566,20.28 88.389,22.082 		"/>
		<path clip-path="url(#SVGID_4_)" fill-rule="evenodd" clip-rule="evenodd" fill="#FFFFFF" d="M47.941,45.021
			c-2.228-1.51-4.669-3-6.91-4.518c-36.016,6.705-8.245,45.359,3.713,24.003C29.986,68.544,24.567,43.841,47.941,45.021"/>
		<polygon clip-path="url(#SVGID_4_)" fill-rule="evenodd" clip-rule="evenodd" fill="#FFFFFF" points="51.385,45.358 50.02,38.852 
			41.106,32.921 41.759,40.111 		"/>
		<path clip-path="url(#SVGID_4_)" fill-rule="evenodd" clip-rule="evenodd" fill="#FFFFFF" d="M48.393,50.603l10.076,2.818
			c10.71,61.611-80.657,18.705-27.787-26.079c3.198-0.195,5.296-0.156,8.075,0.326c-2.597,2.181-5.195,4.342-7.786,6.509
			c-4.686,2.002-13.85,6.447-14.964,21.208C13.495,88.657,66.565,85.927,48.393,50.603"/>
		<path clip-path="url(#SVGID_4_)" fill-rule="evenodd" clip-rule="evenodd" fill="#FFFFFF" d="M46.425,35.749l3.595-3.606
			c-1.704-1.257-3.518-2.242-5.421-2.918l-4.769,3.026h1.275L46.425,35.749z"/>
		<path clip-path="url(#SVGID_4_)" fill-rule="evenodd" clip-rule="evenodd" fill="#FFFFFF" d="M38.655,32.331
			c-1.945,0.203-3.876,0.484-5.84,1.179l6.611-5.727c1.5,0.182,3.002,0.559,4.482,1.153L38.655,32.331z"/>
		<path clip-path="url(#SVGID_4_)" fill-rule="evenodd" clip-rule="evenodd" fill="#E4E7E9" d="M40.662,49.298
			c-8.201,5.705-0.54,16.34,3.637,14.822C40.782,61.851,39.063,56.218,40.662,49.298"/>
	</g>
</g>
</svg>
