<?xml version="1.0" encoding="utf-8"?>
<!-- Generator: Adobe Illustrator 16.0.0, SVG Export Plug-In . SVG Version: 6.00 Build 0)  -->
<!DOCTYPE svg PUBLIC "-//W3C//DTD SVG 1.1//EN" "http://www.w3.org/Graphics/SVG/1.1/DTD/svg11.dtd">
<svg version="1.1" id="Layer_1" xmlns="http://www.w3.org/2000/svg" xmlns:xlink="http://www.w3.org/1999/xlink" x="0px" y="0px"
	 width="267px" height="131.17px" viewBox="0 0 267 131.17" enable-background="new 0 0 267 131.17" xml:space="preserve">
<g>
	<defs>
		<rect id="SVGID_1_" x="-0.083" y="0.25" width="267" height="131.166"/>
	</defs>
	<clipPath id="SVGID_2_">
		<use xlink:href="#SVGID_1_"  overflow="visible"/>
	</clipPath>
	<g clip-path="url(#SVGID_2_)">
		<defs>
			<rect id="SVGID_3_" x="-66.75" y="-8.25" width="382" height="152"/>
		</defs>
		<clipPath id="SVGID_4_">
			<use xlink:href="#SVGID_3_"  overflow="visible"/>
		</clipPath>
		<path clip-path="url(#SVGID_4_)" fill="#FFFFFF" d="M26.094,76.567c0.217-1.273-0.016-2.673-0.334-3.937
			c-1.072-4.13-2.277-8.206-3.403-12.297c-0.092-0.331-0.069-0.679-0.092-1.276c1.543,0,3.037-0.065,4.517,0.052
			c0.322,0.016,0.754,0.561,0.906,0.951c0.28,0.796,0.37,1.669,0.653,2.465c0.11,0.314,0.536,0.51,0.828,0.76
			c0.205-0.289,0.504-0.569,0.581-0.909l-4.091,16.33C25.815,78.015,25.97,77.275,26.094,76.567"/>
		<path clip-path="url(#SVGID_4_)" fill="#FFFFFF" d="M54.774,60.46c-1.328,4.731-2.608,9.456-3.913,14.207
			c-2.572,9.375-5.147,18.767-7.738,28.147c-1.393,5.104-2.826,10.204-4.235,15.305c-0.156,0.042-0.318,0.074-0.471,0.137
			c-0.207-0.468-0.497-0.916-0.613-1.394c-1.819-6.565-3.628-13.154-5.404-19.743c-0.912-3.387-1.783-6.78-2.702-10.168
			c-0.13-0.44-0.214-0.896-0.445-1.26c-0.155-0.25-0.581-0.497-0.847-0.444l3.091-12.184c-0.419,2.257,0.656,4.202,1.14,6.261
			c1.63,6.819,3.41,13.615,5.167,20.415c0.142,0.591,0.376,1.166,0.555,1.731c0.156,0,0.305-0.014,0.455-0.026
			c0.587-2.289,1.182-4.588,1.75-6.881c2.029-8.125,4.078-16.249,6.111-24.371c0.806-3.218,1.618-6.417,2.319-9.651
			c0.259-1.179,0.822-1.607,1.958-1.536c0.909,0.072,1.815,0.072,2.724,0.023C54.794,58.966,55.069,59.388,54.774,60.46"/>
		<path clip-path="url(#SVGID_4_)" fill="#FFFFFF" d="M91.507,40.272c-0.139,8.917-7.287,15.954-16.09,15.827
			c-8.924-0.123-15.788-7.38-15.639-16.545c0.142-8.459,7.53-15.541,16.071-15.392C84.552,24.302,91.64,31.595,91.507,40.272
			 M68.987,36.665c0-1.27-1.114-2.439-2.341-2.439c-1.225,0.016-2.264,1.058-2.289,2.322c-0.013,1.367,0.983,2.396,2.322,2.396
			C67.978,38.938,68.968,37.957,68.987,36.665 M84.191,33.531c0.042-1.231-1.098-2.445-2.315-2.448
			c-1.231-0.02-2.306,1.01-2.351,2.246c-0.026,1.257,1.087,2.455,2.315,2.481C82.974,35.836,84.155,34.69,84.191,33.531"/>
		<path clip-path="url(#SVGID_4_)" fill="#FFFFFF" d="M93.367,87.741V61.106c0-2.243,0.104-2.315,2.42-2.227
			c5.988,0.308,11.648,1.708,16.941,4.657c11.661,6.507,11.216,23.348,1.393,30.002c-4.267,2.899-8.988,4.354-13.927,5.313
			c-1.137,0.217-1.484,0.665-1.472,1.775c0.069,4.67,0.043,9.326,0.043,13.977c-0.013,1.993-0.11,2.107-2.007,2.092
			c-3.686-0.021-3.384,0.428-3.377-3.384V87.741H93.367z M98.742,78.58c0,4.368-0.013,8.729,0.01,13.087
			c0,2.296,0.169,2.357,2.426,2.01c2.733-0.419,5.306-1.292,7.761-2.649c8.407-4.673,8.595-15.454,4.019-20.972
			c-3.224-3.867-7.666-5.436-12.449-6.306c-1.312-0.24-1.799,0.23-1.787,1.588C98.791,69.747,98.752,74.161,98.742,78.58"/>
		<path clip-path="url(#SVGID_4_)" fill="#FFFFFF" d="M146.172,115.21c-4.399,0.191-8.18-0.669-11.554-3.082
			c-4.237-3.059-6.565-7.303-7.277-12.359c-0.733-5.043-0.309-10.018,2.416-14.548c3.543-5.874,8.604-8.972,15.636-8.806
			c3.357,0.084,6.437,0.771,9.245,2.591c1.786,1.159,2.374,2.952,1.861,4.972c-0.504,1.954-1.984,2.906-3.969,2.462
			c-1.803-0.388-3.582-0.952-5.403-1.271c-5.881-1.039-10.703,3.439-10.554,8.829c0.075,2.163,0.208,4.323,0.627,6.42
			c1.078,5.381,6.017,7.122,10.17,6.18c1.13-0.253,2.219-0.688,3.303-1.025c0.237-0.072,0.471-0.192,0.708-0.264
			c2.455-0.747,4.81,0.014,5.501,1.75c0.906,2.381-0.205,5.145-2.507,6.251C151.663,114.596,148.936,115.726,146.172,115.21"/>
		<path clip-path="url(#SVGID_4_)" fill="#FFFFFF" d="M50.646,115.054c0.383,0.169,0.461,0.234,0.549,0.237
			c10.141,0.896,20.285,1.763,30.417,2.66c1.159,0.103,1.361-0.318,1.208-1.388c-0.675-4.55-1.523-9.095-1.854-13.671
			c-0.727-10.102,0.669-20.11,1.949-30.096c0.571-4.364,1.526-8.677,2.318-13.012c0.179-0.945,0.101-1.377-1.066-1.318
			c-2.951,0.162-5.916,0.162-8.871,0.217c-3.653,0.095-7.186-0.425-10.625-1.665c-0.578-0.208-1.218-0.224-1.796-0.316
			C63.333,77.22,60.853,96.918,50.646,115.054"/>
		<path clip-path="url(#SVGID_4_)" fill="#FFFFFF" d="M32.637,56.447h-0.179c-0.139,0-0.318,0-0.405,0.078
			c-0.4,0.318-0.933,0.646-1.062,1.062c-0.475,1.585-0.799,3.205-1.241,4.79l-4.092,16.33l-0.013,0.036
			c-0.419,1.834-0.909,3.64-1.37,5.455l-0.269,1.104c-1.368,5.476-2.728,10.957-4.144,16.428c-0.13,0.472-0.633,0.867-0.977,1.303
			c-0.38-0.447-0.984-0.86-1.114-1.37c-0.958-3.725-1.751-7.482-2.686-11.21c-1.013-4.039-2.153-8.008-3.176-12.051
			c-1.737-6.822-3.442-13.675-5.169-20.52c-0.124-0.386-0.39-0.948-0.686-1.058c-1.412-0.543-2.867-0.556-4.478-0.107
			c5.716,20.818,11.386,41.451,17.026,62.088c0.13-0.006,0.257-0.006,0.403-0.02c0.334-1.078,0.678-2.137,0.97-3.219
			c1.351-5.029,2.689-10.054,4.031-15.069c0.944-3.554,1.889-7.142,2.838-10.691V89.8l1.045-3.787
			c0.079-0.308,0.299-0.74,0.517-0.774l3.091-12.175c0.033-0.228,0.098-0.471,0.169-0.719c1.331-4.243,2.396-8.569,3.559-12.859
			c0.688-2.552,0.779-3.127-0.896-3.127C33.897,56.359,33.332,56.398,32.637,56.447"/>
		<path clip-path="url(#SVGID_4_)" fill="#FFFFFF" d="M246.679,93.46c0.075-1.153,0.014-2.303,0.014-3.456
			c0.009-1.25-0.053-2.51,0.045-3.757c0.026-0.454,0.465-1.253,0.74-1.253c2.641-0.059,5.427-1.017,7.719,1.169
			c1.871,1.818,1.815,4.114,1.053,6.27c-0.566,1.705-2.104,2.605-3.981,2.666c-1.293,0.053-2.602,0.05-3.891,0.063h-0.062
			C247.215,95.161,246.585,94.716,246.679,93.46 M241.902,77.415c-2.049,0.032-3.335,1.597-3.349,3.701
			c-0.055,4.966-0.019,9.927-0.019,14.892h-0.063c0,4.323-0.013,8.632,0.004,12.948c0.01,1.097,0.039,2.217,0.237,3.286
			c0.341,1.867,2.334,3.046,4.504,2.825c1.792-0.176,3.396-1.783,3.448-3.518c0.035-2.299,0.013-4.614,0.026-6.924
			c0.009-1.814,0.214-2.041,2.098-2.058c2.159-0.014,4.309,0.017,6.462-0.059c2.874-0.068,5.192-1.296,6.972-3.537
			c2.852-3.546,3.325-7.673,2.695-11.946c-0.763-5.173-4.28-8.849-9.495-9.364c-2.436-0.261-4.871-0.319-7.329-0.319
			C246.033,77.343,243.961,77.376,241.902,77.415 M219.788,80.789c-1.835,5.237-3.627,10.498-5.455,15.742
			c-0.152,0.413-0.533,0.76-0.796,1.14c-0.324-0.38-0.809-0.705-0.948-1.152c-0.757-2.188-1.429-4.378-2.137-6.572
			c-1.113-3.469-2.198-6.973-3.433-10.404c-0.659-1.88-2.289-2.741-4.215-2.858c-3.237-0.197-5.521,1.923-6.03,5.388
			c-0.309,2.176-0.656,4.354-0.99,6.537c-1.188,7.219-2.384,14.437-3.56,21.663c-0.263,1.655,0.56,3.088,2.069,3.789
			c2.737,1.302,5.497-0.234,5.984-3.388c0.799-5.088,1.523-10.199,2.328-15.304c0.077-0.468,0.475-0.9,0.734-1.345
			c0.309,0.399,0.753,0.748,0.899,1.191c1.734,5.163,3.4,10.356,5.215,15.499c0.399,1.153,1.188,2.349,2.15,3.105
			c1.919,1.471,5.676,0.831,6.728-2.796c1.504-5.304,3.131-10.541,4.751-15.809c0.166-0.542,0.484-1.042,0.724-1.562
			c0.208,0.01,0.416,0.022,0.614,0.022c0.205,0.997,0.436,1.984,0.607,2.984c0.799,4.741,1.51,9.492,2.413,14.229
			c0.535,2.845,3.575,4.4,5.782,3.124c1.897-1.095,1.934-2.871,1.631-4.754c-0.909-5.933-1.779-11.885-2.718-17.834
			c-0.549-3.514-1.075-7.037-1.799-10.527c-0.553-2.734-2.426-4.273-4.825-4.304h-0.095
			C222.74,76.596,220.756,78.028,219.788,80.789 M171.099,99.587c-1.391-0.019-1.731-0.52-1.306-1.776
			c1.152-3.454,2.338-6.92,3.53-10.355c0.129-0.376,0.408-0.714,0.847-1.491c0.563,1.404,1.004,2.378,1.348,3.368
			c0.955,2.861,1.815,5.719,2.793,8.56c0.438,1.261-0.017,1.695-1.201,1.695c-1.319,0-2.646,0.026-3.979,0.026
			C172.456,99.613,171.783,99.606,171.099,99.587 M170.537,77.814c-1.176,1.224-2.176,2.763-2.771,4.352
			c-2.619,7.065-5.13,14.2-7.559,21.354c-0.831,2.441-1.396,4.997-1.923,7.523c-0.289,1.394,0.403,2.783,1.692,3.209
			c1.045,0.344,2.48,0.182,3.511-0.267c2.117-0.922,2.63-3.042,2.974-5.085c0.215-1.36,0.972-1.86,2.264-1.854
			c3.659,0.026,7.322,0.026,10.97,0.026c1.074,0,1.662,0.48,1.989,1.477c0.403,1.226,0.849,2.469,1.391,3.642
			c1.068,2.27,3.656,3.049,5.501,1.63c1.218-0.945,1.887-2.296,1.598-3.835c-0.306-1.751-0.764-3.488-1.364-5.187
			c-1.646-4.481-3.375-8.963-5.137-13.437c-1.419-3.611-2.958-7.193-4.364-10.827c-0.917-2.4-2.741-3.864-5.397-4.31
			C172.755,76.736,171.329,76.976,170.537,77.814"/>
		<path clip-path="url(#SVGID_4_)" fill="#FFFFFF" d="M248.445,68.387c0,1.725-1.399,3.107-3.11,3.107
			c-1.731,0-3.118-1.383-3.118-3.107c0-1.728,1.387-3.118,3.118-3.118C247.046,65.269,248.445,66.659,248.445,68.387"/>
		<path clip-path="url(#SVGID_4_)" fill="#FFFFFF" d="M256.119,68.387c0,1.725-1.384,3.107-3.102,3.107
			c-1.715,0-3.128-1.383-3.128-3.107c0-1.728,1.413-3.118,3.128-3.118C254.735,65.269,256.119,66.659,256.119,68.387"/>
		<path clip-path="url(#SVGID_4_)" fill="#FFFFFF" d="M263.831,68.387c0,1.725-1.38,3.107-3.12,3.107
			c-1.702,0-3.118-1.383-3.118-3.107c0-1.728,1.416-3.118,3.118-3.118C262.451,65.269,263.831,66.659,263.831,68.387"/>
		<path clip-path="url(#SVGID_4_)" fill="#FFFFFF" d="M102.12,6.348c0.062-0.084,0.11-0.153,0.129-0.234
			c1.007-1.399,2.034-2.828,3.017-4.234c0.127-0.179,0.215-0.212,0.432-0.134c3.917,1.757,7.336,4.219,10.314,7.317
			c1.474,1.549,2.818,3.227,3.994,5.02c2.15,3.244,3.701,6.738,4.742,10.469c1.013,3.718,1.414,7.488,1.206,11.314
			c-0.08,1.601-0.304,3.182-0.612,4.751c-0.396,1.997-0.978,3.903-1.727,5.783c-0.076,0.169-0.169,0.247-0.38,0.195
			c-1.741-0.435-3.488-0.857-5.222-1.283c-0.26-0.065-0.26-0.078-0.14-0.308c0.845-1.725,1.416-3.537,1.77-5.394
			c0.458-2.384,0.591-4.774,0.406-7.17c-0.302-4.205-1.429-8.183-3.251-11.976c-1.474-3.03-3.364-5.793-5.724-8.209
			c-1.839-1.887-3.888-3.488-6.232-4.699c-0.819-0.409-1.653-0.731-2.478-1.091C102.286,6.429,102.217,6.39,102.12,6.348"/>
		<path clip-path="url(#SVGID_4_)" fill="#FFFFFF" d="M94.956,16.463c0.205-0.286,0.357-0.516,0.519-0.747
			c0.949-1.341,1.903-2.675,2.829-4.003c0.139-0.206,0.266-0.222,0.487-0.137c3.686,1.536,6.65,4.004,9.086,7.137
			c2.633,3.4,4.354,7.229,5.234,11.427c0.546,2.589,0.689,5.222,0.423,7.843c-0.134,1.276-0.377,2.529-0.744,3.757
			c-0.185,0.656-0.438,1.308-0.669,1.958c-0.045,0.127-0.13,0.156-0.267,0.127c-1.802-0.445-3.604-0.877-5.422-1.316
			c-0.039-0.003-0.069-0.023-0.14-0.071c0.098-0.182,0.166-0.373,0.25-0.552c1.056-2.445,1.452-4.991,1.335-7.631
			c-0.143-2.942-0.919-5.725-2.218-8.355c-1.227-2.501-2.884-4.667-5.02-6.446c-1.391-1.146-2.936-2.072-4.647-2.683
			c-0.156-0.064-0.306-0.123-0.465-0.181C95.352,16.541,95.193,16.515,94.956,16.463"/>
		<path clip-path="url(#SVGID_4_)" fill="#FFFFFF" d="M97.437,40.36c-0.734-0.179-1.484-0.374-2.212-0.539
			c-0.286-0.075-0.286-0.075-0.221-0.377c0.611-2.413,0.549-4.803-0.269-7.17c-0.974-2.841-2.725-5.076-5.27-6.657
			c-0.166-0.107-0.322-0.211-0.487-0.289c-0.179-0.101-0.179-0.178-0.065-0.331c0.818-1.137,1.613-2.28,2.422-3.416
			c0.107-0.14,0.198-0.26,0.279-0.4c0.088-0.155,0.176-0.165,0.332-0.077c1.188,0.62,2.299,1.38,3.308,2.282
			c1.231,1.081,2.267,2.322,3.115,3.728c1.883,3.14,2.685,6.553,2.325,10.219c-0.097,1.15-0.344,2.286-0.685,3.371
			c-0.075,0.221-0.173,0.224-0.37,0.192c-0.718-0.192-1.459-0.364-2.202-0.543V40.36"/>
		<path clip-path="url(#SVGID_4_)" fill="#FFFFFF" d="M35.099,50.543c-0.11,0.013-0.182,0.046-0.26,0.072
			c-1.662,0.516-3.325,1.035-4.965,1.549c-0.214,0.058-0.318,0.019-0.416-0.176c-2.023-3.786-3.237-7.81-3.714-12.073
			c-0.244-2.15-0.257-4.29-0.085-6.436c0.266-3.868,1.172-7.586,2.644-11.184c1.447-3.562,3.428-6.787,5.929-9.709
			c1.058-1.215,2.185-2.322,3.384-3.381c1.519-1.334,3.166-2.481,4.903-3.504c0.169-0.113,0.292-0.113,0.406,0.052
			c1.117,1.413,2.253,2.815,3.377,4.209c0.156,0.211,0.156,0.227-0.081,0.347c-1.718,0.838-3.273,1.92-4.702,3.183
			c-1.813,1.591-3.378,3.409-4.696,5.439c-2.331,3.497-3.87,7.348-4.715,11.446c-0.704,3.316-0.903,6.641-0.503,10.002
			c0.308,2.618,0.948,5.138,2.065,7.531c0.393,0.818,0.864,1.597,1.305,2.383C35.018,50.365,35.043,50.436,35.099,50.543"/>
		<path clip-path="url(#SVGID_4_)" fill="#FFFFFF" d="M46.932,46.887c-0.331,0.12-0.601,0.191-0.867,0.279
			c-1.549,0.484-3.117,0.968-4.683,1.439c-0.223,0.068-0.331,0.026-0.457-0.178c-1.978-3.469-2.829-7.248-2.842-11.21
			c0-4.297,0.981-8.382,2.842-12.246c1.149-2.38,2.62-4.553,4.442-6.462c0.879-0.935,1.837-1.776,2.874-2.53
			c0.558-0.412,1.156-0.747,1.733-1.13c0.124-0.078,0.186-0.055,0.296,0.052c1.166,1.455,2.315,2.906,3.478,4.364
			c0.046,0.014,0.046,0.062,0.078,0.13c-0.175,0.098-0.367,0.192-0.536,0.289c-2.338,1.289-4.202,3.059-5.718,5.225
			c-1.686,2.426-2.78,5.092-3.361,7.979c-0.539,2.728-0.543,5.449,0.061,8.173c0.396,1.767,1.059,3.417,2.03,4.962
			c0.084,0.143,0.182,0.273,0.282,0.412C46.675,46.578,46.792,46.705,46.932,46.887"/>
		<path clip-path="url(#SVGID_4_)" fill="#FFFFFF" d="M59.563,26.455c0.474,0.598,0.942,1.189,1.419,1.767
			c0.182,0.24,0.182,0.24-0.052,0.422c-1.948,1.549-3.374,3.481-4.159,5.858c-0.972,2.842-0.945,5.68,0.103,8.495
			c0.065,0.172,0.124,0.36,0.215,0.523c0.071,0.178,0.016,0.25-0.15,0.305c-1.334,0.4-2.679,0.818-4.013,1.227
			c-0.137,0.033-0.315,0.085-0.465,0.156c-0.165,0.056-0.237,0.013-0.295-0.152c-0.575-1.225-0.971-2.497-1.231-3.826
			c-0.315-1.61-0.386-3.234-0.202-4.851c0.426-3.656,1.891-6.839,4.391-9.537c0.779-0.835,1.676-1.565,2.621-2.231
			c0.178-0.13,0.285-0.072,0.383,0.074c0.477,0.601,0.958,1.183,1.432,1.77H59.563"/>
		<path clip-path="url(#SVGID_4_)" fill="#FFFFFF" d="M16.93,127.286l0.331-0.201c0.234,0.438,0.51,0.663,0.829,0.663
			c0.129,0,0.237-0.023,0.347-0.102c0.126-0.058,0.208-0.139,0.273-0.24c0.077-0.098,0.1-0.218,0.1-0.348
			c0-0.129-0.055-0.263-0.139-0.386c-0.12-0.186-0.344-0.391-0.679-0.649c-0.328-0.244-0.536-0.432-0.607-0.546
			c-0.137-0.185-0.218-0.399-0.218-0.608c0-0.174,0.052-0.334,0.134-0.473c0.084-0.149,0.194-0.263,0.347-0.348
			c0.139-0.087,0.305-0.123,0.484-0.123c0.178,0,0.354,0.042,0.513,0.13c0.168,0.097,0.341,0.276,0.5,0.535l-0.309,0.228
			c-0.139-0.194-0.273-0.309-0.373-0.386c-0.11-0.049-0.215-0.098-0.344-0.098c-0.153,0-0.276,0.062-0.387,0.158
			c-0.097,0.098-0.142,0.212-0.142,0.354c0,0.091,0.012,0.182,0.045,0.256c0.039,0.085,0.104,0.157,0.208,0.264
			c0.045,0.059,0.211,0.182,0.497,0.402c0.334,0.254,0.581,0.487,0.704,0.692c0.117,0.201,0.185,0.389,0.185,0.597
			c0,0.283-0.11,0.549-0.321,0.754c-0.224,0.221-0.481,0.322-0.799,0.322c-0.231,0-0.458-0.063-0.653-0.189
			C17.264,127.813,17.083,127.599,16.93,127.286"/>
		<path clip-path="url(#SVGID_4_)" fill="#FFFFFF" d="M22.83,125.688l-0.308,0.182c-0.247-0.344-0.591-0.516-1.036-0.516
			c-0.358,0-0.659,0.11-0.887,0.337c-0.249,0.238-0.344,0.523-0.344,0.861c0,0.218,0.039,0.422,0.153,0.62
			c0.107,0.169,0.256,0.324,0.438,0.435c0.198,0.107,0.406,0.16,0.64,0.16c0.428,0,0.779-0.192,1.036-0.527l0.308,0.198
			c-0.146,0.208-0.321,0.374-0.565,0.494c-0.227,0.11-0.5,0.182-0.805,0.182c-0.448,0-0.845-0.148-1.14-0.455
			c-0.292-0.292-0.451-0.651-0.451-1.081c0-0.282,0.068-0.555,0.208-0.808c0.149-0.244,0.34-0.439,0.587-0.562
			c0.254-0.153,0.523-0.205,0.835-0.205c0.194,0,0.38,0.022,0.549,0.074c0.178,0.059,0.337,0.144,0.461,0.24
			C22.639,125.42,22.736,125.536,22.83,125.688"/>
		<path clip-path="url(#SVGID_4_)" fill="#FFFFFF" d="M23.558,123.926h0.36v1.679c0.15-0.201,0.315-0.357,0.497-0.468
			c0.188-0.084,0.403-0.133,0.607-0.133c0.215,0,0.416,0.049,0.565,0.158c0.173,0.111,0.296,0.271,0.384,0.445
			c0.068,0.191,0.123,0.497,0.123,0.899v1.536H25.71v-1.429c0-0.338-0.013-0.565-0.032-0.672c-0.059-0.199-0.127-0.348-0.257-0.452
			c-0.133-0.097-0.299-0.149-0.484-0.149c-0.217,0-0.429,0.085-0.62,0.234c-0.169,0.156-0.289,0.354-0.325,0.571
			c-0.061,0.136-0.075,0.406-0.075,0.796v1.101h-0.36V123.926z"/>
		<path clip-path="url(#SVGID_4_)" fill="#FFFFFF" d="M28.266,124.997c0.445,0,0.832,0.165,1.124,0.494
			c0.266,0.302,0.406,0.655,0.406,1.074c0,0.416-0.16,0.772-0.439,1.082c-0.273,0.311-0.646,0.467-1.091,0.467
			c-0.451,0-0.812-0.156-1.091-0.467c-0.283-0.31-0.435-0.666-0.435-1.082c0-0.419,0.139-0.772,0.406-1.074
			C27.448,125.162,27.815,124.997,28.266,124.997 M28.266,125.367c-0.298,0-0.578,0.124-0.805,0.348
			c-0.218,0.24-0.332,0.526-0.332,0.86c0,0.208,0.053,0.406,0.14,0.601c0.123,0.176,0.253,0.321,0.419,0.433
			c0.179,0.094,0.37,0.139,0.578,0.139c0.205,0,0.406-0.045,0.565-0.139c0.179-0.111,0.315-0.257,0.422-0.433
			c0.104-0.194,0.15-0.393,0.15-0.601c0-0.334-0.117-0.62-0.332-0.86C28.838,125.491,28.571,125.367,28.266,125.367"/>
		<path clip-path="url(#SVGID_4_)" fill="#FFFFFF" d="M31.845,124.997c0.455,0,0.832,0.165,1.127,0.494
			c0.26,0.302,0.399,0.655,0.399,1.074c0,0.416-0.139,0.772-0.432,1.082c-0.272,0.311-0.639,0.467-1.094,0.467
			c-0.441,0-0.792-0.156-1.082-0.467c-0.288-0.31-0.428-0.666-0.428-1.082c0-0.419,0.133-0.772,0.403-1.074
			C31.04,125.162,31.404,124.997,31.845,124.997 M31.845,125.367c-0.305,0-0.572,0.124-0.792,0.348
			c-0.218,0.24-0.332,0.526-0.332,0.86c0,0.208,0.042,0.406,0.144,0.601c0.103,0.176,0.239,0.321,0.408,0.433
			c0.179,0.094,0.381,0.139,0.572,0.139c0.217,0,0.403-0.045,0.581-0.139c0.172-0.111,0.306-0.257,0.406-0.433
			c0.107-0.194,0.153-0.393,0.153-0.601c0-0.334-0.114-0.62-0.318-0.86C32.436,125.491,32.16,125.367,31.845,125.367"/>
		<rect x="34.011" y="123.925" clip-path="url(#SVGID_4_)" fill="#FFFFFF" width="0.37" height="4.118"/>
		<path clip-path="url(#SVGID_4_)" fill="#FFFFFF" d="M38.054,124.997c0.445,0,0.821,0.165,1.136,0.494
			c0.26,0.302,0.377,0.655,0.377,1.074c0,0.416-0.13,0.772-0.416,1.082c-0.292,0.311-0.652,0.467-1.097,0.467
			c-0.438,0-0.809-0.156-1.085-0.467c-0.298-0.31-0.422-0.666-0.422-1.082c0-0.419,0.124-0.772,0.39-1.074
			C37.239,125.162,37.616,124.997,38.054,124.997 M38.054,125.367c-0.312,0-0.572,0.124-0.796,0.348
			c-0.227,0.24-0.334,0.526-0.334,0.86c0,0.208,0.045,0.406,0.149,0.601c0.107,0.176,0.237,0.321,0.409,0.433
			c0.185,0.094,0.364,0.139,0.572,0.139c0.221,0,0.399-0.045,0.575-0.139c0.178-0.111,0.318-0.257,0.399-0.433
			c0.123-0.194,0.179-0.393,0.179-0.601c0-0.334-0.127-0.62-0.358-0.86C38.638,125.491,38.359,125.367,38.054,125.367"/>
		<path clip-path="url(#SVGID_4_)" fill="#FFFFFF" d="M41.466,123.926v0.38c-0.136-0.071-0.253-0.098-0.351-0.098
			c-0.067,0-0.133,0.01-0.175,0.052c-0.055,0.029-0.084,0.062-0.098,0.098c-0.016,0.039-0.029,0.152-0.029,0.312v0.399h0.617v0.335
			h-0.617v2.64h-0.37v-2.64h-0.38v-0.335h0.38v-0.464c0-0.208,0.013-0.361,0.068-0.451c0.026-0.101,0.091-0.166,0.182-0.218
			c0.107-0.059,0.205-0.088,0.338-0.088C41.158,123.848,41.294,123.877,41.466,123.926"/>
		<rect x="43.519" y="124.026" clip-path="url(#SVGID_4_)" fill="#FFFFFF" width="0.377" height="4.017"/>
		<path clip-path="url(#SVGID_4_)" fill="#FFFFFF" d="M44.736,125.068h0.377v0.536c0.156-0.202,0.328-0.357,0.513-0.468
			c0.178-0.084,0.36-0.132,0.581-0.132c0.224,0,0.416,0.051,0.585,0.147c0.165,0.121,0.285,0.28,0.37,0.452
			c0.068,0.195,0.126,0.5,0.126,0.902v1.526h-0.386v-1.419c0-0.332-0.016-0.564-0.042-0.679c-0.029-0.192-0.114-0.341-0.237-0.445
			c-0.127-0.097-0.296-0.148-0.474-0.148c-0.237,0-0.442,0.084-0.624,0.233c-0.175,0.156-0.289,0.341-0.348,0.571
			c-0.048,0.136-0.064,0.406-0.064,0.796v1.091h-0.377V125.068z"/>
		<path clip-path="url(#SVGID_4_)" fill="#FFFFFF" d="M49.289,123.926v0.38c-0.13-0.071-0.256-0.098-0.36-0.098
			c-0.072,0-0.13,0.01-0.182,0.052c-0.055,0.029-0.072,0.062-0.098,0.098c-0.006,0.039-0.006,0.152-0.006,0.312v0.399h0.597v0.335
			h-0.597l-0.01,2.64h-0.38v-2.64h-0.37v-0.335h0.37v-0.464c0-0.208,0.036-0.361,0.065-0.451c0.049-0.101,0.107-0.166,0.188-0.218
			c0.101-0.059,0.215-0.088,0.338-0.088C48.968,123.848,49.117,123.877,49.289,123.926"/>
		<path clip-path="url(#SVGID_4_)" fill="#FFFFFF" d="M51.195,124.997c0.432,0,0.805,0.165,1.101,0.494
			c0.269,0.302,0.409,0.655,0.409,1.074c0,0.416-0.14,0.772-0.422,1.082c-0.292,0.311-0.656,0.467-1.088,0.467
			c-0.461,0-0.825-0.156-1.104-0.467c-0.276-0.31-0.432-0.666-0.432-1.082c0-0.419,0.127-0.772,0.425-1.074
			C50.363,125.162,50.734,124.997,51.195,124.997 M51.195,125.367c-0.331,0-0.591,0.124-0.809,0.348
			c-0.243,0.24-0.334,0.526-0.334,0.86c0,0.208,0.045,0.406,0.133,0.601c0.114,0.176,0.254,0.321,0.432,0.433
			c0.179,0.094,0.357,0.139,0.578,0.139c0.188,0,0.393-0.045,0.559-0.139c0.178-0.111,0.311-0.257,0.412-0.433
			c0.101-0.194,0.143-0.393,0.143-0.601c0-0.334-0.097-0.62-0.331-0.86C51.754,125.491,51.479,125.367,51.195,125.367"/>
		<path clip-path="url(#SVGID_4_)" fill="#FFFFFF" d="M53.251,125.068h0.374v0.437c0.123-0.174,0.246-0.287,0.376-0.374
			c0.12-0.089,0.26-0.126,0.39-0.126c0.104,0,0.217,0.024,0.338,0.09l-0.199,0.324c-0.074-0.035-0.139-0.064-0.198-0.064
			c-0.126,0-0.25,0.064-0.351,0.172c-0.129,0.098-0.217,0.253-0.269,0.484c-0.049,0.165-0.087,0.5-0.087,1.022v1h-0.374V125.068z"/>
		<path clip-path="url(#SVGID_4_)" fill="#FFFFFF" d="M55.043,125.068h0.371v0.523c0.136-0.198,0.266-0.331,0.399-0.43
			c0.195-0.106,0.386-0.157,0.601-0.157c0.139,0,0.279,0.021,0.386,0.073c0.14,0.053,0.25,0.14,0.331,0.221
			c0.085,0.095,0.143,0.228,0.205,0.394c0.126-0.221,0.279-0.4,0.474-0.517c0.172-0.12,0.38-0.171,0.587-0.171
			c0.209,0,0.387,0.048,0.55,0.132c0.139,0.12,0.26,0.257,0.344,0.455c0.052,0.179,0.117,0.458,0.117,0.821v1.62h-0.393v-1.62
			c0-0.321-0.026-0.543-0.055-0.658c-0.065-0.104-0.137-0.216-0.247-0.283c-0.107-0.069-0.218-0.117-0.393-0.117
			c-0.179,0-0.338,0.071-0.481,0.172c-0.155,0.098-0.266,0.244-0.334,0.429c-0.055,0.191-0.11,0.5-0.11,0.915v1.163h-0.361v-1.522
			c0-0.36-0.036-0.595-0.068-0.718c-0.052-0.131-0.127-0.24-0.24-0.321c-0.104-0.069-0.225-0.117-0.387-0.117
			c-0.166,0-0.331,0.071-0.481,0.172c-0.143,0.098-0.266,0.244-0.334,0.429c-0.068,0.179-0.11,0.458-0.11,0.821v1.257h-0.371
			V125.068z"/>
		<path clip-path="url(#SVGID_4_)" fill="#FFFFFF" d="M63.09,125.068v2.975h-0.371v-0.52c-0.152,0.201-0.331,0.341-0.535,0.448
			c-0.201,0.087-0.412,0.143-0.64,0.143c-0.409,0-0.766-0.149-1.052-0.457c-0.296-0.315-0.442-0.676-0.442-1.104
			c0-0.449,0.146-0.799,0.442-1.114c0.286-0.302,0.643-0.441,1.062-0.441c0.24,0,0.461,0.055,0.652,0.14
			c0.195,0.12,0.364,0.267,0.513,0.467v-0.535H63.09z M61.57,125.354c-0.195,0-0.38,0.06-0.562,0.17
			c-0.175,0.094-0.312,0.246-0.435,0.432c-0.081,0.191-0.146,0.383-0.146,0.598c0,0.217,0.065,0.408,0.159,0.607
			c0.11,0.182,0.247,0.338,0.422,0.448c0.188,0.094,0.367,0.158,0.562,0.158c0.224,0,0.413-0.064,0.584-0.158
			c0.179-0.11,0.338-0.258,0.429-0.423c0.108-0.179,0.159-0.396,0.159-0.61c0-0.348-0.113-0.633-0.328-0.883
			C62.184,125.478,61.904,125.354,61.57,125.354"/>
		<polygon clip-path="url(#SVGID_4_)" fill="#FFFFFF" points="64.246,123.961 64.623,123.961 64.623,125.068 65.217,125.068 
			65.217,125.399 64.623,125.399 64.623,128.043 64.246,128.043 64.246,125.399 63.743,125.399 63.743,125.068 64.246,125.068 		"/>
		<path clip-path="url(#SVGID_4_)" fill="#FFFFFF" d="M65.909,123.848c0.088,0,0.165,0.029,0.217,0.101
			c0.062,0.052,0.088,0.133,0.088,0.218c0,0.081-0.026,0.166-0.088,0.23c-0.052,0.059-0.129,0.084-0.217,0.084
			c-0.078,0-0.166-0.025-0.208-0.084c-0.058-0.064-0.107-0.149-0.107-0.23c0-0.085,0.049-0.166,0.107-0.218
			C65.743,123.877,65.831,123.848,65.909,123.848 M65.73,125.068h0.37v2.975h-0.37V125.068z"/>
		<path clip-path="url(#SVGID_4_)" fill="#FFFFFF" d="M68.264,124.997c0.435,0,0.821,0.165,1.107,0.494
			c0.266,0.302,0.412,0.655,0.412,1.074c0,0.416-0.159,0.772-0.438,1.082c-0.263,0.311-0.646,0.467-1.081,0.467
			c-0.458,0-0.812-0.156-1.101-0.467c-0.273-0.31-0.426-0.666-0.426-1.082c0-0.419,0.143-0.772,0.409-1.074
			C67.435,125.162,67.806,124.997,68.264,124.997 M68.247,125.367c-0.315,0-0.565,0.124-0.795,0.348
			c-0.215,0.24-0.341,0.526-0.341,0.86c0,0.208,0.061,0.406,0.153,0.601c0.103,0.176,0.249,0.321,0.418,0.433
			c0.179,0.094,0.374,0.139,0.565,0.139c0.218,0,0.413-0.045,0.568-0.139c0.189-0.111,0.328-0.257,0.432-0.433
			c0.098-0.194,0.144-0.393,0.144-0.601c0-0.334-0.102-0.62-0.322-0.86C68.829,125.491,68.572,125.367,68.247,125.367"/>
		<path clip-path="url(#SVGID_4_)" fill="#FFFFFF" d="M70.471,125.068h0.377v0.536c0.149-0.202,0.305-0.357,0.484-0.468
			c0.191-0.084,0.389-0.132,0.603-0.132c0.215,0,0.407,0.051,0.576,0.147c0.175,0.121,0.294,0.28,0.382,0.452
			c0.062,0.195,0.114,0.5,0.114,0.902v1.526h-0.373v-1.419c0-0.332-0.02-0.564-0.039-0.679c-0.049-0.192-0.13-0.341-0.253-0.445
			c-0.124-0.097-0.283-0.148-0.488-0.148c-0.217,0-0.428,0.084-0.607,0.233c-0.172,0.156-0.289,0.341-0.363,0.571
			c-0.036,0.136-0.036,0.406-0.036,0.796v1.091h-0.377V125.068z"/>
		<polygon clip-path="url(#SVGID_4_)" fill="#FFFFFF" points="75.001,124.419 75.001,124.026 77.168,124.026 77.168,124.419 
			76.277,124.419 76.277,128.043 75.875,128.043 75.875,124.419 		"/>
		<path clip-path="url(#SVGID_4_)" fill="#FFFFFF" d="M80.116,127.049l0.309,0.176c-0.098,0.208-0.225,0.373-0.348,0.503
			c-0.146,0.111-0.295,0.217-0.458,0.279c-0.185,0.078-0.37,0.107-0.585,0.107c-0.48,0-0.844-0.155-1.11-0.471
			c-0.269-0.335-0.396-0.688-0.396-1.078c0-0.377,0.1-0.711,0.331-1.014c0.289-0.363,0.666-0.555,1.153-0.555
			s0.899,0.191,1.179,0.578c0.234,0.266,0.328,0.613,0.331,1.004h-2.611c0,0.35,0.114,0.636,0.315,0.854
			c0.204,0.214,0.452,0.334,0.76,0.334c0.175,0,0.308-0.025,0.448-0.094c0.137-0.039,0.253-0.11,0.354-0.208
			C79.899,127.394,79.992,127.248,80.116,127.049 M80.116,126.257c-0.039-0.208-0.124-0.386-0.217-0.487
			c-0.111-0.12-0.238-0.229-0.387-0.299c-0.153-0.077-0.318-0.117-0.5-0.117c-0.279,0-0.526,0.104-0.734,0.296
			c-0.156,0.131-0.263,0.328-0.328,0.607H80.116z"/>
		<path clip-path="url(#SVGID_4_)" fill="#FFFFFF" d="M84.045,125.688l-0.279,0.182c-0.273-0.344-0.62-0.516-1.069-0.516
			c-0.347,0-0.646,0.11-0.873,0.337c-0.24,0.238-0.358,0.523-0.358,0.861c0,0.218,0.04,0.422,0.169,0.62
			c0.101,0.169,0.25,0.324,0.442,0.435c0.178,0.107,0.4,0.16,0.62,0.16c0.435,0,0.777-0.192,1.069-0.527l0.279,0.198
			c-0.143,0.208-0.325,0.374-0.559,0.494c-0.23,0.11-0.497,0.182-0.805,0.182c-0.458,0-0.841-0.148-1.146-0.455
			c-0.302-0.292-0.448-0.651-0.448-1.081c0-0.282,0.071-0.555,0.211-0.808c0.139-0.244,0.337-0.439,0.587-0.562
			c0.238-0.153,0.52-0.205,0.835-0.205c0.188,0,0.373,0.022,0.549,0.074c0.188,0.059,0.334,0.144,0.461,0.24
			C83.847,125.42,83.961,125.536,84.045,125.688"/>
		<path clip-path="url(#SVGID_4_)" fill="#FFFFFF" d="M84.766,123.926h0.371v1.679c0.165-0.201,0.321-0.357,0.503-0.468
			c0.182-0.084,0.383-0.133,0.591-0.133c0.214,0,0.418,0.049,0.575,0.158c0.178,0.111,0.298,0.271,0.373,0.445
			c0.081,0.191,0.127,0.497,0.127,0.899v1.536h-0.364v-1.429c0-0.338-0.026-0.565-0.055-0.672c-0.042-0.199-0.124-0.348-0.238-0.452
			c-0.142-0.097-0.305-0.149-0.487-0.149c-0.233,0-0.425,0.085-0.61,0.234c-0.192,0.156-0.299,0.354-0.36,0.571
			c-0.039,0.136-0.055,0.406-0.055,0.796v1.101h-0.371V123.926z"/>
		<path clip-path="url(#SVGID_4_)" fill="#FFFFFF" d="M88.104,125.068h0.386v0.536c0.14-0.202,0.309-0.357,0.488-0.468
			c0.191-0.084,0.379-0.132,0.6-0.132c0.208,0,0.416,0.051,0.591,0.147c0.14,0.121,0.28,0.28,0.357,0.452
			c0.088,0.195,0.118,0.5,0.118,0.902v1.526H90.27v-1.419c0-0.332-0.003-0.564-0.049-0.679c-0.026-0.192-0.117-0.341-0.227-0.445
			c-0.137-0.097-0.299-0.148-0.484-0.148c-0.237,0-0.445,0.084-0.623,0.233c-0.176,0.156-0.296,0.341-0.361,0.571
			c-0.019,0.136-0.036,0.406-0.036,0.796v1.091h-0.386V125.068z"/>
		<path clip-path="url(#SVGID_4_)" fill="#FFFFFF" d="M92.819,124.997c0.458,0,0.828,0.165,1.12,0.494
			c0.27,0.302,0.4,0.655,0.4,1.074c0,0.416-0.13,0.772-0.422,1.082c-0.283,0.311-0.64,0.467-1.098,0.467
			c-0.442,0-0.796-0.156-1.082-0.467c-0.292-0.31-0.432-0.666-0.432-1.082c0-0.419,0.137-0.772,0.41-1.074
			C92.001,125.162,92.371,124.997,92.819,124.997 M92.819,125.367c-0.309,0-0.572,0.124-0.789,0.348
			c-0.228,0.24-0.328,0.526-0.328,0.86c0,0.208,0.052,0.406,0.136,0.601c0.107,0.176,0.247,0.321,0.416,0.433
			c0.188,0.094,0.37,0.139,0.565,0.139c0.224,0,0.416-0.045,0.584-0.139c0.176-0.111,0.315-0.257,0.413-0.433
			c0.097-0.194,0.152-0.393,0.152-0.601c0-0.334-0.107-0.62-0.334-0.86C93.41,125.491,93.134,125.367,92.819,125.367"/>
		<rect x="94.982" y="123.925" clip-path="url(#SVGID_4_)" fill="#FFFFFF" width="0.37" height="4.118"/>
		<path clip-path="url(#SVGID_4_)" fill="#FFFFFF" d="M97.508,124.997c0.461,0,0.832,0.165,1.12,0.494
			c0.26,0.302,0.396,0.655,0.396,1.074c0,0.416-0.136,0.772-0.422,1.082c-0.282,0.311-0.646,0.467-1.094,0.467
			c-0.435,0-0.805-0.156-1.088-0.467c-0.283-0.31-0.429-0.666-0.429-1.082c0-0.419,0.13-0.772,0.407-1.074
			C96.69,125.162,97.063,124.997,97.508,124.997 M97.508,125.367c-0.305,0-0.562,0.124-0.799,0.348
			c-0.224,0.24-0.338,0.526-0.338,0.86c0,0.208,0.053,0.406,0.159,0.601c0.088,0.176,0.237,0.321,0.416,0.433
			c0.172,0.094,0.364,0.139,0.562,0.139c0.205,0,0.409-0.045,0.568-0.139c0.179-0.111,0.319-0.257,0.416-0.433
			c0.11-0.194,0.149-0.393,0.149-0.601c0-0.334-0.107-0.62-0.324-0.86C98.086,125.491,97.82,125.367,97.508,125.367"/>
		<path clip-path="url(#SVGID_4_)" fill="#FFFFFF" d="M102.233,125.068h0.373v2.364c0,0.415-0.039,0.725-0.108,0.919
			c-0.087,0.267-0.265,0.475-0.5,0.613c-0.243,0.16-0.555,0.231-0.876,0.231c-0.253,0-0.484-0.029-0.679-0.099
			c-0.208-0.076-0.36-0.178-0.487-0.302c-0.12-0.123-0.244-0.292-0.344-0.535h0.409c0.117,0.197,0.257,0.337,0.422,0.447
			c0.176,0.088,0.393,0.144,0.653,0.144c0.243,0,0.467-0.056,0.65-0.144c0.168-0.11,0.295-0.23,0.373-0.373
			c0.085-0.152,0.114-0.383,0.114-0.701v-0.169c-0.143,0.183-0.319,0.322-0.513,0.442c-0.205,0.074-0.419,0.136-0.65,0.136
			c-0.263,0-0.516-0.065-0.76-0.208c-0.227-0.133-0.422-0.315-0.536-0.548c-0.136-0.229-0.201-0.491-0.201-0.764
			c0-0.267,0.065-0.521,0.205-0.77c0.136-0.228,0.331-0.413,0.545-0.546c0.247-0.152,0.5-0.211,0.76-0.211
			c0.218,0,0.429,0.045,0.604,0.133c0.179,0.102,0.367,0.25,0.546,0.461V125.068z M101.123,125.354c-0.218,0-0.403,0.06-0.578,0.17
			c-0.195,0.094-0.348,0.246-0.432,0.432c-0.104,0.182-0.165,0.37-0.165,0.598c0,0.318,0.107,0.598,0.341,0.806
			c0.201,0.203,0.48,0.314,0.818,0.314c0.337,0,0.626-0.111,0.834-0.305c0.205-0.218,0.308-0.5,0.308-0.845
			c0-0.221-0.032-0.42-0.142-0.588c-0.091-0.182-0.24-0.332-0.403-0.412C101.516,125.413,101.328,125.354,101.123,125.354"/>
		<polygon clip-path="url(#SVGID_4_)" fill="#FFFFFF" points="103.093,125.068 103.486,125.068 104.49,127.352 105.474,125.068 
			105.866,125.068 104.129,129.118 103.733,129.118 104.295,127.806 		"/>
		<rect x="110.624" y="123.925" clip-path="url(#SVGID_4_)" fill="#FFFFFF" width="0.374" height="5.193"/>
		<polygon clip-path="url(#SVGID_4_)" fill="#FFFFFF" points="116.154,124.026 116.563,124.026 116.563,125.526 118.135,124.026 
			118.671,124.026 116.771,125.832 118.817,128.033 118.287,128.033 116.563,126.176 116.563,128.033 116.154,128.033 		"/>
		<path clip-path="url(#SVGID_4_)" fill="#FFFFFF" d="M119.479,123.848c0.082,0,0.133,0.029,0.211,0.101
			c0.056,0.052,0.085,0.133,0.085,0.218c0,0.081-0.029,0.166-0.085,0.23c-0.078,0.059-0.129,0.084-0.211,0.084
			c-0.097,0-0.165-0.025-0.233-0.084c-0.056-0.064-0.085-0.149-0.085-0.23c0-0.085,0.029-0.166,0.085-0.218
			C119.314,123.877,119.382,123.848,119.479,123.848 M119.288,125.068h0.357v2.975h-0.357V125.068z"/>
		<path clip-path="url(#SVGID_4_)" fill="#FFFFFF" d="M120.438,125.068h0.36v0.536c0.166-0.202,0.322-0.357,0.514-0.468
			c0.181-0.084,0.382-0.132,0.584-0.132c0.217,0,0.413,0.051,0.591,0.147c0.156,0.121,0.292,0.28,0.36,0.452
			c0.075,0.195,0.127,0.5,0.127,0.902v1.526h-0.38v-1.419c0-0.332-0.007-0.564-0.046-0.679c-0.029-0.192-0.113-0.341-0.239-0.445
			c-0.127-0.097-0.29-0.148-0.484-0.148c-0.228,0-0.439,0.084-0.614,0.233c-0.166,0.156-0.289,0.341-0.344,0.571
			c-0.043,0.136-0.069,0.406-0.069,0.796v1.091h-0.36V125.068z"/>
		<path clip-path="url(#SVGID_4_)" fill="#FFFFFF" d="M126.276,125.068h0.373v2.364c0,0.415-0.032,0.725-0.094,0.919
			c-0.104,0.267-0.279,0.475-0.52,0.613c-0.231,0.16-0.529,0.231-0.864,0.231c-0.25,0-0.48-0.029-0.672-0.099
			c-0.198-0.076-0.362-0.178-0.488-0.302c-0.127-0.123-0.247-0.292-0.344-0.535h0.403c0.107,0.197,0.236,0.337,0.429,0.447
			c0.179,0.088,0.396,0.144,0.646,0.144c0.269,0,0.474-0.056,0.658-0.144c0.166-0.11,0.289-0.23,0.364-0.373
			c0.078-0.152,0.107-0.383,0.107-0.701v-0.169c-0.13,0.183-0.306,0.322-0.504,0.442c-0.204,0.074-0.429,0.136-0.652,0.136
			c-0.263,0-0.523-0.065-0.757-0.208c-0.237-0.133-0.409-0.315-0.559-0.548c-0.123-0.229-0.178-0.491-0.178-0.764
			c0-0.267,0.055-0.521,0.192-0.77c0.14-0.228,0.331-0.413,0.564-0.546c0.228-0.152,0.478-0.211,0.75-0.211
			c0.211,0,0.426,0.045,0.607,0.133c0.188,0.102,0.377,0.25,0.536,0.461V125.068z M125.191,125.354c-0.224,0-0.419,0.06-0.607,0.17
			c-0.175,0.094-0.318,0.246-0.421,0.432c-0.108,0.182-0.166,0.37-0.166,0.598c0,0.318,0.117,0.598,0.331,0.806
			c0.212,0.203,0.481,0.314,0.832,0.314c0.348,0,0.627-0.111,0.821-0.305c0.214-0.218,0.321-0.5,0.321-0.845
			c0-0.221-0.055-0.42-0.152-0.588c-0.081-0.182-0.23-0.332-0.409-0.412C125.581,125.413,125.39,125.354,125.191,125.354"/>
		<polygon clip-path="url(#SVGID_4_)" fill="#FFFFFF" points="128.861,128.043 129.423,124.026 129.487,124.026 131.089,127.309 
			132.663,124.026 132.734,124.026 133.299,128.043 132.913,128.043 132.53,125.163 131.141,128.043 131.043,128.043 
			129.631,125.137 129.24,128.043 		"/>
		<path clip-path="url(#SVGID_4_)" fill="#FFFFFF" d="M135.385,124.997c0.441,0,0.828,0.165,1.117,0.494
			c0.266,0.302,0.415,0.655,0.415,1.074c0,0.416-0.152,0.772-0.422,1.082c-0.296,0.311-0.669,0.467-1.11,0.467
			c-0.436,0-0.796-0.156-1.085-0.467c-0.285-0.31-0.425-0.666-0.425-1.082c0-0.419,0.14-0.772,0.386-1.074
			C134.563,125.162,134.949,124.997,135.385,124.997 M135.385,125.367c-0.306,0-0.575,0.124-0.796,0.348
			c-0.224,0.24-0.331,0.526-0.331,0.86c0,0.208,0.055,0.406,0.152,0.601c0.098,0.176,0.234,0.321,0.419,0.433
			c0.162,0.094,0.354,0.139,0.556,0.139c0.218,0,0.399-0.045,0.585-0.139c0.172-0.111,0.298-0.257,0.396-0.433
			c0.13-0.194,0.162-0.393,0.162-0.601c0-0.334-0.104-0.62-0.328-0.86C135.97,125.491,135.703,125.367,135.385,125.367"/>
		<path clip-path="url(#SVGID_4_)" fill="#FFFFFF" d="M137.6,125.068h0.38v0.536c0.146-0.202,0.312-0.357,0.49-0.468
			c0.188-0.084,0.39-0.132,0.598-0.132c0.217,0,0.415,0.051,0.591,0.147c0.149,0.121,0.286,0.28,0.37,0.452
			c0.081,0.195,0.117,0.5,0.117,0.902v1.526h-0.387v-1.419c0-0.332-0.01-0.564-0.022-0.679c-0.053-0.192-0.144-0.341-0.261-0.445
			c-0.119-0.097-0.282-0.148-0.467-0.148c-0.244,0-0.438,0.084-0.607,0.233c-0.188,0.156-0.315,0.341-0.377,0.571
			c-0.032,0.136-0.045,0.406-0.045,0.796v1.091h-0.38V125.068z"/>
		<path clip-path="url(#SVGID_4_)" fill="#FFFFFF" d="M143.464,125.068h0.36v2.364c0,0.415-0.032,0.725-0.098,0.919
			c-0.094,0.267-0.263,0.475-0.517,0.613c-0.24,0.16-0.535,0.231-0.88,0.231c-0.24,0-0.467-0.029-0.679-0.099
			c-0.182-0.076-0.354-0.178-0.471-0.302c-0.116-0.123-0.24-0.292-0.36-0.535h0.423c0.093,0.197,0.253,0.337,0.435,0.447
			c0.169,0.088,0.384,0.144,0.646,0.144c0.25,0,0.477-0.056,0.646-0.144c0.166-0.11,0.303-0.23,0.364-0.373
			c0.088-0.152,0.13-0.383,0.13-0.701v-0.169c-0.149,0.183-0.328,0.322-0.526,0.442c-0.204,0.074-0.412,0.136-0.655,0.136
			c-0.257,0-0.51-0.065-0.76-0.208c-0.225-0.133-0.416-0.315-0.523-0.548c-0.14-0.229-0.205-0.491-0.205-0.764
			c0-0.267,0.065-0.521,0.208-0.77c0.117-0.228,0.303-0.413,0.546-0.546c0.228-0.152,0.49-0.211,0.754-0.211
			c0.224,0,0.429,0.045,0.606,0.133c0.195,0.102,0.364,0.25,0.556,0.461V125.068z M142.356,125.354c-0.224,0-0.415,0.06-0.595,0.17
			c-0.181,0.094-0.324,0.246-0.432,0.432c-0.097,0.182-0.16,0.37-0.16,0.598c0,0.318,0.115,0.598,0.329,0.806
			c0.218,0.203,0.487,0.314,0.831,0.314c0.332,0,0.617-0.111,0.838-0.305c0.201-0.218,0.303-0.5,0.303-0.845
			c0-0.221-0.039-0.42-0.137-0.588c-0.117-0.182-0.23-0.332-0.399-0.412C142.733,125.413,142.552,125.354,142.356,125.354"/>
		<polygon clip-path="url(#SVGID_4_)" fill="#FFFFFF" points="144.633,123.926 145.006,123.926 145.006,126.271 146.351,125.068 
			146.909,125.068 145.309,126.488 147,128.043 146.468,128.043 145.006,126.689 145.006,128.043 144.633,128.043 		"/>
		<path clip-path="url(#SVGID_4_)" fill="#FFFFFF" d="M147.332,125.068h0.376v1.4c0,0.328,0.023,0.555,0.059,0.69
			c0.045,0.18,0.152,0.313,0.302,0.416c0.149,0.127,0.345,0.166,0.533,0.166c0.217,0,0.398-0.039,0.535-0.166
			c0.146-0.097,0.25-0.233,0.301-0.386c0.047-0.127,0.069-0.364,0.069-0.721v-1.4h0.364v1.452c0,0.409-0.029,0.72-0.134,0.925
			c-0.101,0.211-0.23,0.367-0.429,0.494c-0.191,0.107-0.412,0.175-0.707,0.175c-0.273,0-0.507-0.067-0.712-0.175
			c-0.182-0.127-0.312-0.283-0.415-0.494c-0.098-0.205-0.143-0.516-0.143-0.958V125.068z"/>
		<polygon clip-path="url(#SVGID_4_)" fill="#FFFFFF" points="151.043,123.961 151.413,123.961 151.413,125.068 152.004,125.068 
			152.004,125.399 151.413,125.399 151.413,128.043 151.043,128.043 151.043,125.399 150.533,125.399 150.533,125.068 
			151.043,125.068 		"/>
		<path clip-path="url(#SVGID_4_)" fill="#FFFFFF" d="M153.082,125.426l-0.208-0.133c0.069-0.13,0.114-0.237,0.134-0.31
			c0.035-0.084,0.039-0.19,0.039-0.314h-0.211v-0.743h0.471v0.471c0,0.221-0.01,0.422-0.037,0.556
			C153.234,125.068,153.173,125.233,153.082,125.426"/>
		<path clip-path="url(#SVGID_4_)" fill="#FFFFFF" d="M155.956,125.394l-0.229,0.26c-0.212-0.188-0.407-0.3-0.599-0.3
			c-0.117,0-0.214,0.04-0.312,0.118c-0.088,0.081-0.14,0.191-0.14,0.282c0,0.113,0.052,0.202,0.113,0.286
			c0.085,0.094,0.225,0.188,0.455,0.314c0.27,0.133,0.481,0.283,0.568,0.422c0.117,0.146,0.143,0.283,0.143,0.464
			c0,0.237-0.081,0.462-0.24,0.611c-0.166,0.178-0.396,0.263-0.633,0.263c-0.169,0-0.328-0.039-0.484-0.11
			c-0.146-0.071-0.288-0.179-0.38-0.302l0.24-0.282c0.182,0.227,0.39,0.328,0.595,0.328c0.162,0,0.279-0.046,0.399-0.141
			c0.097-0.109,0.155-0.214,0.155-0.347c0-0.114-0.032-0.211-0.11-0.292c-0.074-0.088-0.224-0.192-0.471-0.322
			c-0.25-0.14-0.441-0.276-0.529-0.416c-0.098-0.126-0.152-0.274-0.152-0.461c0-0.217,0.081-0.416,0.233-0.548
			c0.149-0.153,0.341-0.218,0.575-0.218C155.417,125.004,155.681,125.131,155.956,125.394"/>
		<path clip-path="url(#SVGID_4_)" fill="#FFFFFF" d="M158.213,124.026h0.402v2.423c0,0.292,0,0.474,0.004,0.531
			c0.022,0.166,0.068,0.3,0.14,0.413c0.078,0.088,0.182,0.179,0.328,0.253c0.149,0.081,0.299,0.102,0.451,0.102
			c0.123,0,0.257-0.021,0.373-0.078c0.134-0.063,0.222-0.133,0.296-0.231c0.088-0.1,0.14-0.224,0.188-0.354
			c0.025-0.11,0.039-0.328,0.039-0.636v-2.423h0.386v2.423c0,0.354-0.025,0.64-0.11,0.859c-0.055,0.229-0.191,0.427-0.39,0.599
			c-0.224,0.14-0.471,0.236-0.763,0.236c-0.321,0-0.591-0.088-0.812-0.233c-0.225-0.162-0.381-0.363-0.462-0.623
			c-0.038-0.153-0.071-0.437-0.071-0.838V124.026z"/>
		<path clip-path="url(#SVGID_4_)" fill="#FFFFFF" d="M161.727,125.068h0.383v0.536c0.141-0.202,0.303-0.357,0.487-0.468
			c0.192-0.084,0.387-0.132,0.595-0.132c0.224,0,0.415,0.051,0.581,0.147c0.172,0.121,0.296,0.28,0.377,0.452
			c0.068,0.195,0.127,0.5,0.127,0.902v1.526h-0.387v-1.419c0-0.332-0.014-0.564-0.039-0.679c-0.036-0.192-0.127-0.341-0.257-0.445
			c-0.11-0.097-0.272-0.148-0.471-0.148c-0.237,0-0.432,0.084-0.61,0.233c-0.179,0.156-0.296,0.341-0.357,0.571
			c-0.029,0.136-0.046,0.406-0.046,0.796v1.091h-0.383V125.068z"/>
		<path clip-path="url(#SVGID_4_)" fill="#FFFFFF" d="M165.201,123.848c0.088,0,0.152,0.029,0.225,0.101
			c0.052,0.052,0.091,0.133,0.091,0.218c0,0.081-0.039,0.166-0.091,0.23c-0.072,0.059-0.137,0.084-0.225,0.084
			c-0.081,0-0.159-0.025-0.218-0.084c-0.068-0.064-0.084-0.149-0.084-0.23c0-0.085,0.016-0.166,0.084-0.218
			C165.042,123.877,165.12,123.848,165.201,123.848 M165.02,125.068h0.381v2.975h-0.381V125.068z"/>
		<polygon clip-path="url(#SVGID_4_)" fill="#FFFFFF" points="165.884,125.068 166.299,125.068 167.27,127.24 168.231,125.068 
			168.641,125.068 167.296,128.033 167.221,128.033 		"/>
		<path clip-path="url(#SVGID_4_)" fill="#FFFFFF" d="M171.65,127.049l0.318,0.176c-0.101,0.208-0.225,0.373-0.36,0.503
			c-0.127,0.111-0.286,0.217-0.448,0.279c-0.166,0.078-0.367,0.107-0.588,0.107c-0.475,0-0.831-0.155-1.114-0.471
			c-0.266-0.335-0.393-0.688-0.393-1.078c0-0.377,0.114-0.711,0.338-1.014c0.286-0.363,0.669-0.555,1.152-0.555
			c0.497,0,0.887,0.191,1.188,0.578c0.211,0.266,0.325,0.613,0.325,1.004h-2.621c0,0.35,0.117,0.636,0.318,0.854
			c0.208,0.214,0.471,0.334,0.78,0.334c0.152,0,0.288-0.025,0.425-0.094c0.149-0.039,0.263-0.11,0.357-0.208
			C171.43,127.394,171.54,127.248,171.65,127.049 M171.65,126.257c-0.042-0.208-0.11-0.386-0.221-0.487
			c-0.088-0.12-0.211-0.229-0.36-0.299c-0.169-0.077-0.335-0.117-0.514-0.117c-0.279,0-0.525,0.104-0.737,0.296
			c-0.152,0.131-0.253,0.328-0.341,0.607H171.65z"/>
		<path clip-path="url(#SVGID_4_)" fill="#FFFFFF" d="M172.631,125.068h0.374v0.437c0.113-0.174,0.24-0.287,0.366-0.374
			c0.12-0.089,0.26-0.126,0.39-0.126c0.099,0,0.225,0.024,0.338,0.09l-0.201,0.324c-0.088-0.035-0.149-0.064-0.195-0.064
			c-0.113,0-0.25,0.064-0.356,0.172c-0.127,0.098-0.215,0.253-0.267,0.484c-0.052,0.165-0.074,0.5-0.074,1.022v1h-0.374V125.068z"/>
		<path clip-path="url(#SVGID_4_)" fill="#FFFFFF" d="M175.882,125.394l-0.24,0.26c-0.212-0.188-0.399-0.3-0.595-0.3
			c-0.11,0-0.237,0.04-0.314,0.118c-0.072,0.081-0.127,0.191-0.127,0.282c0,0.113,0.035,0.202,0.107,0.286
			c0.071,0.094,0.224,0.188,0.461,0.314c0.282,0.133,0.468,0.283,0.555,0.422c0.102,0.146,0.153,0.283,0.153,0.464
			c0,0.237-0.088,0.462-0.25,0.611c-0.176,0.178-0.39,0.263-0.637,0.263c-0.162,0-0.318-0.039-0.475-0.11
			c-0.152-0.071-0.292-0.179-0.383-0.302l0.243-0.282c0.183,0.227,0.387,0.328,0.602,0.328c0.152,0,0.275-0.046,0.383-0.141
			c0.117-0.109,0.152-0.214,0.152-0.347c0-0.114-0.029-0.211-0.088-0.292c-0.077-0.088-0.243-0.192-0.48-0.322
			c-0.266-0.14-0.438-0.276-0.529-0.416c-0.097-0.126-0.152-0.274-0.152-0.461c0-0.217,0.081-0.416,0.224-0.548
			c0.156-0.153,0.354-0.218,0.582-0.218C175.343,125.004,175.603,125.131,175.882,125.394"/>
		<path clip-path="url(#SVGID_4_)" fill="#FFFFFF" d="M176.677,123.848c0.085,0,0.156,0.029,0.211,0.101
			c0.063,0.052,0.079,0.133,0.079,0.218c0,0.081-0.017,0.166-0.079,0.23c-0.055,0.059-0.126,0.084-0.211,0.084
			c-0.077,0-0.165-0.025-0.23-0.084c-0.052-0.064-0.084-0.149-0.084-0.23c0-0.085,0.032-0.166,0.084-0.218
			C176.512,123.877,176.6,123.848,176.677,123.848 M176.479,125.068h0.384v2.975h-0.384V125.068z"/>
		<polygon clip-path="url(#SVGID_4_)" fill="#FFFFFF" points="177.95,123.961 178.33,123.961 178.33,125.068 178.94,125.068 
			178.94,125.399 178.33,125.399 178.33,128.043 177.95,128.043 177.95,125.399 177.45,125.399 177.45,125.068 177.95,125.068 		"/>
		<polygon clip-path="url(#SVGID_4_)" fill="#FFFFFF" points="179.178,125.068 179.577,125.068 180.564,127.352 181.552,125.068 
			181.957,125.068 180.217,129.118 179.827,129.118 180.369,127.806 		"/>
		<path clip-path="url(#SVGID_4_)" fill="#FFFFFF" d="M185.321,124.997c0.455,0,0.832,0.165,1.124,0.494
			c0.276,0.302,0.399,0.655,0.399,1.074c0,0.416-0.137,0.772-0.419,1.082c-0.286,0.311-0.649,0.467-1.104,0.467
			c-0.444,0-0.805-0.156-1.084-0.467c-0.3-0.31-0.423-0.666-0.423-1.082c0-0.419,0.123-0.772,0.396-1.074
			C184.513,125.162,184.877,124.997,185.321,124.997 M185.321,125.367c-0.305,0-0.574,0.124-0.795,0.348
			c-0.218,0.24-0.345,0.526-0.345,0.86c0,0.208,0.056,0.406,0.166,0.601c0.097,0.176,0.227,0.321,0.402,0.433
			c0.179,0.094,0.37,0.139,0.571,0.139c0.211,0,0.403-0.045,0.585-0.139c0.172-0.111,0.299-0.257,0.39-0.433
			c0.117-0.194,0.155-0.393,0.155-0.601c0-0.334-0.106-0.62-0.324-0.86C185.906,125.491,185.64,125.367,185.321,125.367"/>
		<path clip-path="url(#SVGID_4_)" fill="#FFFFFF" d="M188.728,123.926v0.38c-0.123-0.071-0.246-0.098-0.341-0.098
			c-0.084,0-0.138,0.01-0.185,0.052c-0.053,0.029-0.079,0.062-0.098,0.098c-0.007,0.039-0.007,0.152-0.007,0.312v0.399h0.601v0.335
			h-0.601l-0.013,2.64h-0.37v-2.64h-0.384v-0.335h0.384v-0.464c0-0.208,0.022-0.361,0.056-0.451
			c0.032-0.101,0.103-0.166,0.187-0.218c0.096-0.059,0.216-0.088,0.339-0.088C188.423,123.848,188.575,123.877,188.728,123.926"/>
		<polygon clip-path="url(#SVGID_4_)" fill="#FFFFFF" points="190.439,124.419 190.439,124.026 192.596,124.026 192.596,124.419 
			191.722,124.419 191.722,128.043 191.325,128.043 191.325,124.419 		"/>
		<path clip-path="url(#SVGID_4_)" fill="#FFFFFF" d="M195.563,127.049l0.305,0.176c-0.084,0.208-0.217,0.373-0.356,0.503
			c-0.13,0.111-0.279,0.217-0.458,0.279c-0.156,0.078-0.36,0.107-0.565,0.107c-0.478,0-0.848-0.155-1.127-0.471
			c-0.263-0.335-0.399-0.688-0.399-1.078c0-0.377,0.117-0.711,0.354-1.014c0.276-0.363,0.669-0.555,1.144-0.555
			c0.496,0,0.886,0.191,1.191,0.578c0.204,0.266,0.302,0.613,0.314,1.004h-2.604c0,0.35,0.107,0.636,0.315,0.854
			c0.214,0.214,0.478,0.334,0.783,0.334c0.136,0,0.278-0.025,0.425-0.094c0.136-0.039,0.253-0.11,0.36-0.208
			C195.334,127.394,195.443,127.248,195.563,127.049 M195.563,126.257c-0.052-0.208-0.12-0.386-0.221-0.487
			c-0.091-0.12-0.221-0.229-0.36-0.299c-0.169-0.077-0.335-0.117-0.522-0.117c-0.28,0-0.526,0.104-0.737,0.296
			c-0.137,0.131-0.254,0.328-0.335,0.607H195.563z"/>
		<path clip-path="url(#SVGID_4_)" fill="#FFFFFF" d="M199.502,125.688l-0.305,0.182c-0.247-0.344-0.607-0.516-1.056-0.516
			c-0.344,0-0.637,0.11-0.876,0.337c-0.234,0.238-0.348,0.523-0.348,0.861c0,0.218,0.048,0.422,0.158,0.62
			c0.102,0.169,0.254,0.324,0.442,0.435c0.194,0.107,0.405,0.16,0.63,0.16c0.429,0,0.786-0.192,1.049-0.527l0.305,0.198
			c-0.143,0.208-0.331,0.374-0.567,0.494c-0.23,0.11-0.501,0.182-0.806,0.182c-0.468,0-0.835-0.148-1.124-0.455
			c-0.317-0.292-0.471-0.651-0.471-1.081c0-0.282,0.072-0.555,0.198-0.808c0.159-0.244,0.357-0.439,0.598-0.562
			c0.25-0.153,0.532-0.205,0.831-0.205c0.191,0,0.377,0.022,0.562,0.074c0.188,0.059,0.328,0.144,0.458,0.24
			C199.298,125.42,199.401,125.536,199.502,125.688"/>
		<path clip-path="url(#SVGID_4_)" fill="#FFFFFF" d="M200.227,123.926h0.354v1.679c0.159-0.201,0.325-0.357,0.504-0.468
			c0.191-0.084,0.373-0.133,0.604-0.133c0.202,0,0.396,0.049,0.575,0.158c0.166,0.111,0.296,0.271,0.37,0.445
			c0.072,0.191,0.117,0.497,0.117,0.899v1.536h-0.367v-1.429c0-0.338-0.02-0.565-0.053-0.672c-0.028-0.199-0.125-0.348-0.246-0.452
			c-0.127-0.097-0.282-0.149-0.471-0.149c-0.24,0-0.436,0.085-0.61,0.234c-0.173,0.156-0.298,0.354-0.364,0.571
			c-0.025,0.136-0.059,0.406-0.059,0.796v1.101h-0.354V123.926z"/>
		<path clip-path="url(#SVGID_4_)" fill="#FFFFFF" d="M203.555,125.068h0.374v0.536c0.149-0.202,0.328-0.357,0.497-0.468
			c0.178-0.084,0.386-0.132,0.591-0.132c0.228,0,0.409,0.051,0.588,0.147c0.165,0.121,0.279,0.28,0.37,0.452
			c0.081,0.195,0.13,0.5,0.13,0.902v1.526h-0.387v-1.419c0-0.332-0.017-0.564-0.036-0.679c-0.038-0.192-0.133-0.341-0.256-0.445
			c-0.127-0.097-0.283-0.148-0.471-0.148c-0.225,0-0.438,0.084-0.617,0.233c-0.18,0.156-0.302,0.341-0.357,0.571
			c-0.029,0.136-0.052,0.406-0.052,0.796v1.091h-0.374V125.068z"/>
		<path clip-path="url(#SVGID_4_)" fill="#FFFFFF" d="M208.28,124.997c0.441,0,0.817,0.165,1.12,0.494
			c0.26,0.302,0.399,0.655,0.399,1.074c0,0.416-0.152,0.772-0.423,1.082c-0.292,0.311-0.655,0.467-1.097,0.467
			c-0.445,0-0.818-0.156-1.102-0.467c-0.282-0.31-0.435-0.666-0.435-1.082c0-0.419,0.149-0.772,0.422-1.074
			C207.462,125.162,207.832,124.997,208.28,124.997 M208.264,125.367c-0.299,0-0.565,0.124-0.783,0.348
			c-0.236,0.24-0.35,0.526-0.35,0.86c0,0.208,0.055,0.406,0.152,0.601c0.107,0.176,0.23,0.321,0.422,0.433
			c0.172,0.094,0.377,0.139,0.559,0.139c0.221,0,0.402-0.045,0.581-0.139c0.179-0.111,0.318-0.257,0.419-0.433
			c0.101-0.194,0.14-0.393,0.14-0.601c0-0.334-0.113-0.62-0.331-0.86C208.845,125.491,208.588,125.367,208.264,125.367"/>
		<rect x="210.43" y="123.925" clip-path="url(#SVGID_4_)" fill="#FFFFFF" width="0.376" height="4.118"/>
		<path clip-path="url(#SVGID_4_)" fill="#FFFFFF" d="M212.966,124.997c0.444,0,0.815,0.165,1.12,0.494
			c0.257,0.302,0.396,0.655,0.396,1.074c0,0.416-0.149,0.772-0.426,1.082c-0.289,0.311-0.646,0.467-1.091,0.467
			c-0.455,0-0.828-0.156-1.095-0.467c-0.282-0.31-0.432-0.666-0.432-1.082c0-0.419,0.123-0.772,0.393-1.074
			C212.138,125.162,212.508,124.997,212.966,124.997 M212.966,125.367c-0.321,0-0.591,0.124-0.803,0.348
			c-0.227,0.24-0.337,0.526-0.337,0.86c0,0.208,0.045,0.406,0.149,0.601c0.104,0.176,0.253,0.321,0.412,0.433
			c0.165,0.094,0.36,0.139,0.578,0.139c0.204,0,0.402-0.045,0.571-0.139c0.166-0.111,0.315-0.257,0.412-0.433
			c0.095-0.194,0.153-0.393,0.153-0.601c0-0.334-0.115-0.62-0.335-0.86C213.537,125.491,213.268,125.367,212.966,125.367"/>
		<path clip-path="url(#SVGID_4_)" fill="#FFFFFF" d="M217.677,125.068h0.376v2.364c0,0.415-0.042,0.725-0.109,0.919
			c-0.098,0.267-0.267,0.475-0.496,0.613c-0.254,0.16-0.549,0.231-0.895,0.231c-0.242,0-0.467-0.029-0.661-0.099
			c-0.195-0.076-0.367-0.178-0.487-0.302c-0.113-0.123-0.24-0.292-0.341-0.535h0.409c0.098,0.197,0.25,0.337,0.419,0.447
			c0.179,0.088,0.396,0.144,0.649,0.144c0.262,0,0.487-0.056,0.652-0.144c0.179-0.11,0.299-0.23,0.387-0.373
			c0.071-0.152,0.097-0.383,0.097-0.701v-0.169c-0.133,0.183-0.305,0.322-0.519,0.442c-0.189,0.074-0.406,0.136-0.644,0.136
			c-0.263,0-0.517-0.065-0.767-0.208c-0.224-0.133-0.399-0.315-0.535-0.548c-0.123-0.229-0.195-0.491-0.195-0.764
			c0-0.267,0.081-0.521,0.205-0.77c0.14-0.228,0.321-0.413,0.565-0.546c0.239-0.152,0.473-0.211,0.74-0.211
			c0.224,0,0.428,0.045,0.61,0.133c0.191,0.102,0.363,0.25,0.538,0.461V125.068z M216.573,125.354c-0.224,0-0.412,0.06-0.581,0.17
			c-0.189,0.094-0.321,0.246-0.436,0.432c-0.104,0.182-0.165,0.37-0.165,0.598c0,0.318,0.126,0.598,0.331,0.806
			c0.208,0.203,0.503,0.314,0.818,0.314c0.344,0,0.643-0.111,0.848-0.305c0.204-0.218,0.318-0.5,0.318-0.845
			c0-0.221-0.043-0.42-0.154-0.588c-0.093-0.182-0.229-0.332-0.398-0.412C216.969,125.413,216.784,125.354,216.573,125.354"/>
		<polygon clip-path="url(#SVGID_4_)" fill="#FFFFFF" points="218.538,125.068 218.94,125.068 219.938,127.352 220.908,125.068 
			221.314,125.068 219.574,129.118 219.178,129.118 219.743,127.806 		"/>
		<polygon clip-path="url(#SVGID_4_)" fill="#FFFFFF" points="224.497,124.419 224.497,124.026 226.666,124.026 226.666,124.419 
			225.779,124.419 225.779,128.043 225.37,128.043 225.37,124.419 		"/>
		<path clip-path="url(#SVGID_4_)" fill="#FFFFFF" d="M227.159,123.926h0.377v1.679c0.149-0.201,0.331-0.357,0.51-0.468
			c0.169-0.084,0.374-0.133,0.585-0.133c0.224,0,0.412,0.049,0.571,0.158c0.176,0.111,0.305,0.271,0.377,0.445
			c0.074,0.191,0.123,0.497,0.123,0.899v1.536h-0.377v-1.429c0-0.338-0.01-0.565-0.039-0.672c-0.042-0.199-0.123-0.348-0.243-0.452
			c-0.133-0.097-0.282-0.149-0.483-0.149c-0.234,0-0.429,0.085-0.607,0.234c-0.186,0.156-0.292,0.354-0.364,0.571
			c-0.025,0.136-0.052,0.406-0.052,0.796v1.101h-0.377V123.926z"/>
		<path clip-path="url(#SVGID_4_)" fill="#FFFFFF" d="M231.888,124.997c0.441,0,0.818,0.165,1.101,0.494
			c0.276,0.302,0.409,0.655,0.409,1.074c0,0.416-0.133,0.772-0.422,1.082c-0.282,0.311-0.656,0.467-1.088,0.467
			c-0.429,0-0.825-0.156-1.104-0.467c-0.27-0.31-0.418-0.666-0.418-1.082c0-0.419,0.136-0.772,0.402-1.074
			C231.063,125.162,231.437,124.997,231.888,124.997 M231.888,125.367c-0.315,0-0.581,0.124-0.818,0.348
			c-0.218,0.24-0.328,0.526-0.328,0.86c0,0.208,0.052,0.406,0.149,0.601c0.11,0.176,0.25,0.321,0.416,0.433
			c0.168,0.094,0.373,0.139,0.581,0.139c0.204,0,0.402-0.045,0.568-0.139c0.182-0.111,0.309-0.257,0.416-0.433
			c0.104-0.194,0.152-0.393,0.152-0.601c0-0.334-0.114-0.62-0.345-0.86C232.459,125.491,232.206,125.367,231.888,125.367"/>
		<path clip-path="url(#SVGID_4_)" fill="#FFFFFF" d="M234.108,125.068h0.36v0.536c0.15-0.202,0.315-0.357,0.487-0.468
			c0.191-0.084,0.387-0.132,0.61-0.132c0.218,0,0.413,0.051,0.565,0.147c0.169,0.121,0.305,0.28,0.37,0.452
			c0.101,0.195,0.14,0.5,0.14,0.902v1.526h-0.37v-1.419c0-0.332-0.026-0.564-0.06-0.679c-0.044-0.192-0.119-0.341-0.246-0.445
			c-0.126-0.097-0.285-0.148-0.483-0.148c-0.214,0-0.432,0.084-0.595,0.233c-0.185,0.156-0.309,0.341-0.363,0.571
			c-0.029,0.136-0.056,0.406-0.056,0.796v1.091h-0.36V125.068z"/>
		<path clip-path="url(#SVGID_4_)" fill="#FFFFFF" d="M237.473,128.043v-4.118h0.351v1.653c0.163-0.195,0.348-0.344,0.55-0.441
			c0.194-0.095,0.393-0.133,0.62-0.133c0.425,0,0.772,0.133,1.071,0.46c0.276,0.29,0.422,0.67,0.422,1.089
			c0,0.429-0.146,0.799-0.422,1.104c-0.302,0.301-0.659,0.457-1.078,0.457c-0.24,0-0.451-0.058-0.64-0.156
			c-0.191-0.106-0.37-0.256-0.523-0.464v0.549H237.473z M238.96,127.741c0.205,0,0.394-0.039,0.578-0.156
			c0.172-0.106,0.315-0.247,0.406-0.435c0.127-0.195,0.179-0.394,0.179-0.598c0-0.228-0.052-0.416-0.179-0.598
			c-0.091-0.201-0.234-0.351-0.412-0.451c-0.179-0.11-0.367-0.163-0.563-0.163c-0.218,0-0.402,0.053-0.591,0.163
			c-0.191,0.101-0.324,0.239-0.419,0.432c-0.113,0.169-0.149,0.373-0.149,0.604c0,0.341,0.11,0.637,0.331,0.858
			C238.373,127.634,238.629,127.741,238.96,127.741"/>
		<path clip-path="url(#SVGID_4_)" fill="#FFFFFF" d="M241.123,125.068h0.377v1.4c0,0.328,0.029,0.555,0.061,0.69
			c0.045,0.18,0.144,0.313,0.3,0.416c0.165,0.127,0.326,0.166,0.539,0.166c0.208,0,0.386-0.039,0.542-0.166
			c0.14-0.097,0.225-0.233,0.306-0.386c0.021-0.127,0.052-0.364,0.052-0.721v-1.4h0.386v1.452c0,0.409-0.064,0.72-0.155,0.925
			c-0.092,0.211-0.228,0.367-0.412,0.494c-0.205,0.107-0.43,0.175-0.718,0.175c-0.279,0-0.51-0.067-0.708-0.175
			c-0.191-0.127-0.341-0.283-0.42-0.494c-0.106-0.205-0.148-0.516-0.148-0.958V125.068z"/>
		<path clip-path="url(#SVGID_4_)" fill="#FFFFFF" d="M244.37,125.068h0.383v0.437c0.107-0.174,0.225-0.287,0.352-0.374
			c0.123-0.089,0.275-0.126,0.393-0.126c0.107,0,0.224,0.024,0.341,0.09l-0.211,0.324c-0.069-0.035-0.14-0.064-0.182-0.064
			c-0.124,0-0.244,0.064-0.374,0.172c-0.098,0.098-0.191,0.253-0.25,0.484c-0.052,0.165-0.068,0.5-0.068,1.022v1h-0.383V125.068z"/>
		<path clip-path="url(#SVGID_4_)" fill="#FFFFFF" d="M246.293,123.848c0.074,0,0.149,0.029,0.201,0.101
			c0.064,0.052,0.091,0.133,0.091,0.218c0,0.081-0.026,0.166-0.091,0.23c-0.052,0.059-0.127,0.084-0.201,0.084
			c-0.088,0-0.179-0.025-0.208-0.084c-0.065-0.064-0.114-0.149-0.114-0.23c0-0.085,0.049-0.166,0.114-0.218
			C246.114,123.877,246.205,123.848,246.293,123.848 M246.088,125.068h0.387v2.975h-0.387V125.068z"/>
	</g>
</g>
</svg>
