<?xml version="1.0" encoding="utf-8"?>
<!-- Generator: Adobe Illustrator 16.0.0, SVG Export Plug-In . SVG Version: 6.00 Build 0)  -->
<!DOCTYPE svg PUBLIC "-//W3C//DTD SVG 1.1//EN" "http://www.w3.org/Graphics/SVG/1.1/DTD/svg11.dtd">
<svg version="1.1" id="Layer_1" xmlns="http://www.w3.org/2000/svg" xmlns:xlink="http://www.w3.org/1999/xlink" x="0px" y="0px"
	 width="150px" height="150px" viewBox="0 0 150 150" enable-background="new 0 0 150 150" xml:space="preserve">
<g id="Layer_2" display="none">
	<g display="inline">
		<g>
			<path fill="#FFFFFF" d="M47.25,97.352c7.724-13.386,20.766-22.596,28.499-35.999c1.614-2.798-2.707-5.314-4.317-2.523
				c-7.723,13.385-20.766,22.596-28.499,35.999C41.319,97.626,45.64,100.143,47.25,97.352L47.25,97.352z"/>
		</g>
	</g>
	
		<rect display="inline" fill="#29366D" stroke="#FFFFFF" stroke-linejoin="round" stroke-miterlimit="10" width="150" height="150"/>
</g>
<g id="_x30_4">
	<path id="XMLID_1469_" fill="#006999" stroke="#006999" stroke-linejoin="round" stroke-miterlimit="10" d="M148.428,92.025v-0.097
		l-0.213-0.489l-0.895-0.175h-0.008l-25.078-38.079l8.021-5.482l-9.467,1.271l-7.957-5.475l-10.203-6.695
		c0,0-23.162,4.253-23.893,4.873c1.229-2.32,2.334-7.252,2.334-7.252l-2.969-9.033l-5.179-2.472l-0.11,0.015h-0.01l-0.199-0.015
		l-5.091,2.657l-2.648,9.141l2.215,6.469L43.646,37.66l-9.951,7.068l-7.756,5.762l-9.499-0.922l9.023,5.319l-0.158,0.287
		l-0.019,0.026l-0.025,0.053L4.223,93.834H4.214L2.67,93.875l-0.522,0.249L2,94.683l25.022,27.979l1.17,0.007l25.655-28.925
		l0.012-0.104l-0.221-0.49l-0.899-0.166L27.531,54.719l27.652-11.281l17.578,5.924l0.278,0.11l0.041,0.048l0.876,0.021l17.344-6.555
		l28.613,10.393h0.006L98.797,92.117l-0.004,0.005l-1.555,0.034l-0.516,0.256l-0.15,0.545l25.018,27.986l1.178,0.004L148.428,92.025
		z M25.17,58.322l0.719,35L5.828,93.793L25.17,58.322z M26.563,55.768l24.481,37.17l-23.772,0.365l-0.705-37.521l-0.004-0.01V55.768
		z M121.789,91.583l-21.387,0.489l20.707-37.967L121.789,91.583z M145.613,91.22l-22.434,0.329l0,0l-0.643-35.373l23.082,35.044
		H145.613z"/>
</g>
<g id="_x30_4_libra">
	<g>
		<g>
			<path fill="#E3D4BF" d="M134.141,109.932l-9.189-3.344v-10.02l-7.374-43.412l-40.149,2.461L29.905,53.95l0.467-0.349
				l42.923-32.194l44.641,31.417l0.017,0.083l7.406,43.625l0.005,9.77l8.92,3.242L134.141,109.932z M31.085,53.58l46.336,1.626
				l39.73-2.434L73.304,21.916L31.085,53.58z"/>
		</g>
		<g>
			<polygon fill="#E3D4BF" points="64.046,119.668 56.646,90.895 30.329,53.883 30.663,53.647 57.035,90.758 64.443,119.568 			"/>
		</g>
		<g>
			<circle fill="#E3D4BF" cx="73.711" cy="22.073" r="1.646"/>
			<circle opacity="0.32" fill="#E3D4BF" enable-background="new    " cx="73.71" cy="22.073" r="2.47"/>
		</g>
		<g>
			<path fill="#E3D4BF" d="M118.986,53.354c0,0.908-0.738,1.646-1.65,1.646c-0.906,0-1.645-0.737-1.645-1.646
				c0-0.909,0.738-1.647,1.645-1.647C118.248,51.706,118.986,52.444,118.986,53.354z"/>
			<path opacity="0.32" fill="#E3D4BF" enable-background="new    " d="M119.478,54.588c-0.686,1.182-2.192,1.585-3.375,0.904
				c-1.182-0.682-1.586-2.192-0.903-3.374c0.682-1.18,2.193-1.584,3.375-0.903C119.753,51.896,120.161,53.405,119.478,54.588z"/>
		</g>
		<g>
			<circle fill="#E3D4BF" cx="57.247" cy="91.219" r="1.646"/>
			<path opacity="0.32" fill="#E3D4BF" enable-background="new    " d="M59.386,92.453c-0.681,1.182-2.191,1.588-3.374,0.904
				c-1.18-0.68-1.584-2.193-0.901-3.375c0.681-1.18,2.192-1.584,3.371-0.902C59.664,89.762,60.068,91.271,59.386,92.453z"/>
		</g>
		<g>
			<path fill="#E3D4BF" d="M127.214,96.158c0,0.908-0.737,1.646-1.645,1.646c-0.911,0-1.644-0.738-1.644-1.646
				c0-0.91,0.732-1.648,1.644-1.648C126.479,94.512,127.214,95.248,127.214,96.158z"/>
			<circle opacity="0.32" fill="#E3D4BF" enable-background="new    " cx="125.57" cy="96.158" r="2.471"/>
		</g>
		<g>
			<path fill="#E3D4BF" d="M135.45,110.152c0,0.906-0.739,1.645-1.651,1.645c-0.906,0-1.644-0.738-1.644-1.645
				c0-0.91,0.737-1.648,1.644-1.648C134.711,108.504,135.45,109.242,135.45,110.152z"/>
			<circle opacity="0.32" fill="#E3D4BF" enable-background="new    " cx="133.801" cy="110.151" r="2.47"/>
		</g>
		<g>
			<path fill="#E3D4BF" d="M127.214,106.033c0,0.91-0.737,1.648-1.645,1.648c-0.911,0-1.644-0.738-1.644-1.648
				c0-0.908,0.732-1.645,1.644-1.645C126.479,104.389,127.214,105.125,127.214,106.033z"/>
			<circle opacity="0.32" fill="#E3D4BF" enable-background="new    " cx="125.57" cy="106.036" r="2.47"/>
		</g>
		<g>
			<circle fill="#E3D4BF" cx="77.826" cy="54.999" r="2.196"/>
			<circle opacity="0.32" fill="#E3D4BF" enable-background="new    " cx="77.826" cy="54.998" r="3.292"/>
			<circle opacity="0.32" fill="#E3D4BF" enable-background="new    " cx="77.826" cy="55" r="4.167"/>
			<path opacity="0.32" fill="#E3D4BF" enable-background="new    " d="M82.313,57.589c-1.43,2.479-4.601,3.328-7.078,1.898
				c-2.479-1.431-3.328-4.599-1.897-7.078c1.433-2.478,4.599-3.328,7.078-1.896C82.895,51.943,83.743,55.113,82.313,57.589z"/>
		</g>
		<g>
			<circle fill="#E3D4BF" cx="30.084" cy="53.353" r="2.195"/>
			<circle opacity="0.32" fill="#E3D4BF" enable-background="new    " cx="30.083" cy="53.354" r="3.292"/>
			<circle opacity="0.32" fill="#E3D4BF" enable-background="new    " cx="30.084" cy="53.353" r="4.167"/>
			<circle opacity="0.32" fill="#E3D4BF" enable-background="new    " cx="30.084" cy="53.353" r="5.181"/>
		</g>
		<g>
			<path fill="#E3D4BF" d="M67.674,120.029c0,1.213-0.983,2.193-2.194,2.193c-1.213,0-2.196-0.98-2.196-2.193
				s0.983-2.195,2.196-2.195C66.691,117.834,67.674,118.816,67.674,120.029z"/>
			<circle opacity="0.32" fill="#E3D4BF" enable-background="new    " cx="65.479" cy="120.029" r="3.293"/>
			<path opacity="0.32" fill="#E3D4BF" enable-background="new    " d="M65.479,115.861c2.302,0,4.167,1.865,4.167,4.166
				c0,2.305-1.866,4.17-4.167,4.17s-4.167-1.865-4.167-4.17C61.312,117.727,63.178,115.861,65.479,115.861z"/>
			<circle opacity="0.32" fill="#E3D4BF" enable-background="new    " cx="65.479" cy="120.028" r="5.181"/>
		</g>
	</g>
</g>
</svg>
