<svg width="84" height="84" viewBox="0 0 84 84" fill="none" xmlns="http://www.w3.org/2000/svg">
<path d="M74.3748 0H9.62521C4.31561 0 0 4.31561 0 9.62521V74.3748C0 79.6844 4.31561 84 9.62521 84H74.3748C79.6844 84 84 79.6844 84 74.3748V9.62521C84 4.31561 79.6844 0 74.3748 0V0Z" fill="#68B0B5"/>
<path d="M55.9998 59.5002H28.0002C26.0648 59.5002 24.4998 57.932 24.4998 55.9998C24.4998 54.0682 26.0648 52.5 28.0002 52.5H55.9998C57.9352 52.5 59.5002 54.0682 59.5002 55.9998C59.5002 57.932 57.9352 59.5002 55.9998 59.5002Z" fill="#FAFAFA"/>
<path d="M55.9998 45.4998H28.0002C26.0648 45.4998 24.4998 43.9322 24.4998 42C24.4998 40.0678 26.0648 38.5002 28.0002 38.5002H55.9998C57.9352 38.5002 59.5002 40.0678 59.5002 42C59.5002 43.9322 57.9352 45.4998 55.9998 45.4998Z" fill="#FAFAFA"/>
<path d="M55.9998 31.5H28.0002C26.0648 31.5 24.4998 29.9318 24.4998 28.0002C24.4998 26.068 26.0648 24.4998 28.0002 24.4998H55.9998C57.9352 24.4998 59.5002 26.068 59.5002 28.0002C59.5002 29.9318 57.9352 31.5 55.9998 31.5Z" fill="#FAFAFA"/>
</svg>
