<?xml version="1.0" encoding="utf-8"?>
<!-- Generator: Adobe Illustrator 16.0.0, SVG Export Plug-In . SVG Version: 6.00 Build 0)  -->
<!DOCTYPE svg PUBLIC "-//W3C//DTD SVG 1.1//EN" "http://www.w3.org/Graphics/SVG/1.1/DTD/svg11.dtd">
<svg version="1.1" id="Layer_1" xmlns="http://www.w3.org/2000/svg" xmlns:xlink="http://www.w3.org/1999/xlink" x="0px" y="0px"
	 width="150px" height="150px" viewBox="0 0 150 150" enable-background="new 0 0 150 150" xml:space="preserve">
<g id="Layer_2" display="none">
	<g display="inline">
		<g>
			<path fill="#FFFFFF" d="M47.25,97.352c7.724-13.386,20.766-22.596,28.499-35.999c1.614-2.798-2.707-5.314-4.317-2.523
				c-7.723,13.385-20.766,22.596-28.499,35.999C41.319,97.626,45.64,100.143,47.25,97.352L47.25,97.352z"/>
		</g>
	</g>
	
		<rect display="inline" fill="#29366D" stroke="#FFFFFF" stroke-linejoin="round" stroke-miterlimit="10" width="150" height="150"/>
</g>
<g id="Layer_1_1_" display="none">
	<g id="XMLID_21197_" display="inline">
		<g id="XMLID_763_">
			<g id="XMLID_1331_">
				<path id="XMLID_1484_" fill="#006999" stroke="#006999" stroke-linejoin="round" stroke-miterlimit="10" d="M-243.71-167.366
					l1.581,0.239l3.199-1.152l0.798-4.07l-0.716-0.364l-0.621,0.461l-1.672,1.848l-2.633-1.008l-1.969-5.481l3.151-5.317
					l5.171,0.398l0.179,0.292l0.108,0.188l-4.056,1.725l-1.867,3.499l-0.021,0.081l0.015,0.072l0.118,0.096l4.557-0.159l0.453-0.318
					l0.16,0.337l2.247,6.339l1.341,3.967l0.081,0.356l5.5,5.542l0.585-0.028l5.769-5.813l1.366-3.935l2.326-6.345l0.162-0.324
					l0.448,0.321l4.553,0.202l0.121-0.094l-0.004-0.151l-1.831-3.519l-4.014-1.761l0.11-0.189l0.182-0.29l5.174-0.349l3.1,5.351
					l-2.023,5.46l-2.643,0.982l-1.653-1.863l-0.616-0.467l-0.72,0.356l0.757,4.077l3.188,1.185l1.582-0.222l5.457-6.271
					l-2.412-14.769l-0.62-0.637l-0.017-0.015l-0.146-0.063l-10.677-1.475l-3.638,3.929l-0.153,0.516l-6.365,0.312l-0.208-0.858
					l-3.6-3.966l-10.693,1.369l-0.143,0.059l-0.018,0.015l-0.628,0.631l-2.558,14.744L-243.71-167.366z"/>
				<path id="XMLID_1482_" fill="#006999" stroke="#006999" stroke-linejoin="round" stroke-miterlimit="10" d="M-158.244-140.266
					l0.6,0.325l7.051-1.794l4.562-3.066l5.488-4.414l0.547,0.327l3.954,2.632l0.156-0.021l0.079-0.136l0.257-4.125l-1.351-2.62
					l0.614,0.054l3.828-2.101l0.477-10.37l-0.584-0.376l-0.479,0.498l-1.18,3.549l-6.85,2.556l-3.507-3.105l-4.475-1.759
					l-0.875-7.263l2.613-2.678l0.224-0.653l-0.602-0.344l-9.002,5.174l-0.109,4.367l0.581,0.808l-2.53,0.119l-3.548,2.119
					l-0.063,0.063l-0.024,0.073l0.056,0.148l4.148,2.309l0.575-0.039l-0.015,0.329l-0.021,0.059l-1.401,6.882l-0.924,4.211
					l-0.757,5.086L-158.244-140.266z"/>
				<g id="XMLID_1477_">
					<path id="XMLID_1480_" fill="#006999" stroke="#006999" stroke-linejoin="round" stroke-miterlimit="10" d="M-319.71-139.51
						l5.915-0.125l2.621-2.567l-0.81-7.311l-0.496-1.116l4.444-1.451l-1.486-0.826l-3.895-2.037l-0.145-7.265l5.691-0.289
						l5.68,3.512l0.147,0.017l0.111-0.094l-1.744-3.76l-1.552-3.652l3.848-5.323l-3.085,1.95l-5.653,3.475l-10.486,3.659
						l-4.549,10.736l-0.003,4.965L-319.71-139.51z"/>
					<path id="XMLID_1478_" fill="#006999" stroke="#006999" stroke-linejoin="round" stroke-miterlimit="10" d="M-299.443-158.859
						l0.499,1.113l-4.444,1.454l1.483,0.824l3.897,2.036l0.146,7.265l-5.691,0.289l-5.68-3.512l-0.147-0.017l-0.114,0.095
						l1.747,3.759l1.529,2.796l-3.829,6.18l3.088-1.95l5.654-3.475l9.36-2.416l5.673-11.979l0.004-4.969l-5.448-7.499l-8.536,2.692
						L-299.443-158.859z"/>
				</g>
				<path id="XMLID_1420_" fill="#006999" stroke="#006999" stroke-linejoin="round" stroke-miterlimit="10" d="M-405.513-13.663
					l0.032,0.022l13.738,6.751l7.333-5.128l1.224,2.259l2.745,1.5l0.092,0.023l0.083-0.017l0.114-0.133l-0.108-3.655l-0.01-0.376
					l12.791-6.304l0.034-0.019l2.488-1.007l2.106-0.417l-4.842-1.928l-12.361-5.603l0.034-0.374l0.219-3.648l-0.107-0.139
					l-0.175,0.002l-2.789,1.418l-1.276,2.144l-7.188-5.399l-13.937,6.333l-0.035,0.022l0.004,0.007l-0.079,0.098l0.077,0.217
					l0.231-0.005l10.416-2.771l7.205,5.834l-0.084,7.324l-7.404,5.74l-10.322-3.076l-0.237-0.018l-0.083,0.215l0.076,0.101
					L-405.513-13.663z"/>
				<g id="XMLID_1384_">
					<g id="XMLID_1393_">
						<path id="XMLID_1401_" fill="#006999" stroke="#006999" stroke-linejoin="round" stroke-miterlimit="10" d="M-101.579-82.9
							l4.124-1.27l1.876-2.77l-2.67-3.39l0.441-2.099l2.5-0.418l0.058-1.207l0.732-0.384c0,0,0.078-0.934,0.19-0.952
							c0.112-0.019,1.947,0.075,1.947,0.075l0.315-1.952l0.765-0.401l2.27,1.773l5.441-1.312l6.601,4.536l0.528,6.502l-4.86,6.446
							l-6.831-0.125l-4.363-0.012l-5.157,4.409"/>
					</g>
					<g id="XMLID_1387_">
						<path id="XMLID_1390_" fill="#006999" stroke="#006999" stroke-linejoin="round" stroke-miterlimit="10" d="M-110.284-99.499
							l3.39-2.67l3.346,0.032l1.27,4.124l1.978,0.83l1.767-1.819l1.025,0.64l0.731-0.384c0,0,0.813,0.467,0.893,0.385
							c0.078-0.082,1.045-1.644,1.045-1.644l1.786,0.85l0.764-0.4l-0.168-2.875l4.173-3.731l0.021-8.008l-5.049-4.131l-8.065,0.333
							l-3.781,5.69l-2.472,3.596l-6.56,1.735"/>
					</g>
				</g>
				<g id="XMLID_1332_">
					<g id="XMLID_1355_">
						<polygon id="XMLID_1362_" fill="#006999" stroke="#006999" stroke-linejoin="round" stroke-miterlimit="10" points="
							-375.381,-105.003 -366.031,-104.526 -358.349,-109.743 -354.408,-107.682 -358.085,-106.729 -358.139,-101.212 
							-352.093,-95.132 -349.363,-87.495 -351.99,-83.271 -359.99,-79.037 -370.006,-81.791 -370.382,-89.407 -376.481,-89.97 
							-379.251,-96.267 -374.452,-101.196 						"/>
						<polygon id="XMLID_1359_" fill="#29366D" stroke="#29366D" stroke-linejoin="round" stroke-miterlimit="10" points="
							-371.09,-91.827 -374.751,-92.084 -376,-95.612 -373.963,-98.681 						"/>
					</g>
					<polygon id="XMLID_1339_" fill="#006999" stroke="#006999" stroke-linejoin="round" stroke-miterlimit="10" points="
						-350.338,-107.081 -344.118,-104.205 -341.592,-105.5 -343.327,-107.836 					"/>
					<polygon id="XMLID_1336_" fill="#006999" stroke="#006999" stroke-linejoin="round" stroke-miterlimit="10" points="
						-357.352,-111.781 -350.529,-111.135 -348.578,-113.197 -350.99,-114.823 					"/>
					<polygon id="XMLID_1333_" fill="#006999" stroke="#006999" stroke-linejoin="round" stroke-miterlimit="10" points="
						-367.127,-108.288 -360.974,-111.305 -360.389,-114.083 -363.295,-114.207 					"/>
				</g>
			</g>
		</g>
	</g>
</g>
<g id="_x30_1" display="none">
	<path id="XMLID_1475_" display="inline" fill="#006999" d="M257.648-406.042l-3.631,19.852c0,0,4.582,11.4,9.342,14.698
		c-0.096,0.072-0.209,0.313-0.209,0.313l2.91,12.017c0,0,17.217,13.595,18.777,14.838l0,0c-0.854,2.725-1.764,8.723-1.764,8.723
		s-0.119,1.179-0.146,1.783c-2.488-0.803-16.082-8.061-16.082-8.061l-5.72-7.319l-10.711-13.043l-3.168-0.632l10.285,20.335
		l25.047,15.792c0,0,0.259-0.034,0.36-0.088c0.084,1.284,0.209,2.573,0.392,3.873c-0.065,0.005-0.129,0.014-0.199,0.04
		c-0.729,0.227-22.997,13.267-22.997,13.267l-4.57,14.579c0,0,0.567,0.441,0.929,0.441c0.237,0.009,0.743-0.167,0.743-0.167
		l2.117-3.931l5.817-9.585c0,0,17.185-7.604,19.457-8.232c0.417,1.612,0.922,3.188,1.497,4.707
		c-0.852,0.522-17.727,17.087-17.727,17.087l-0.832,14.193l0.681,0.237l0.955-0.366l1.038-4.048l3.091-9.883
		c0,0,13.751-10.683,15.437-11.638c0.983,1.688,2.09,3.243,3.325,4.627c-1.438,1.851-8.69,17.969-8.69,17.969
		s1.666,10.829,3.437,11.315c0.101,0.024,0.198,0.039,0.295,0.046c0.427,0.002,1.082-0.66,1.082-0.66l-0.319-3.532l-0.396-8.411
		c0,0,7.398-11.819,8.568-13.192c0.096,0.081,0.318,0.229,0.318,0.229l22.156,7.827l2.613-0.023l20.885-6.76
		c0,0,0.227-0.143,0.348-0.216c1.115,1.448,7.949,13.57,7.949,13.57l-0.785,8.388l-0.48,3.511l1.049,0.708l0.299-0.034l3.949-11.148
		c0,0-6.52-16.464-7.854-18.343c1.287-1.327,2.465-2.833,3.516-4.473c1.641,1.024,14.902,12.328,14.902,12.328l2.625,10.021
		l0.863,4.096l0.941,0.398l0.684-0.199l-0.193-14.217c0,0-16.248-17.441-16.92-17.888c0.641-1.488,1.219-3.043,1.713-4.624
		c2.227,0.723,19.059,9.105,19.059,9.105l5.383,9.836l1.932,4.027l0.738,0.204l0.949-0.405l-3.9-14.765
		c0,0-21.656-14.047-22.369-14.311c-0.068-0.032-0.143-0.043-0.209-0.045c0.242-1.288,0.438-2.572,0.574-3.847
		c0.105,0.06,0.357,0.095,0.357,0.095l25.74-14.621l11.199-19.841l-3.184,0.484l-11.287,12.54l-6.061,7.039
		c0,0-13.914,6.632-16.434,7.309c-0.006-0.601-0.064-1.778-0.064-1.778s-0.621-6.107-1.297-8.84v-0.005
		c1.873-1.359,19.365-13.907,19.365-13.907l3.465-11.883c0,0-0.104-0.229-0.201-0.311l0,0c4.906-3.076,10.008-14.255,10.008-14.255
		l-2.717-20.001L361.627-414.5l-0.59,1.959l3.572,3.658l4.541,10.705l-14.604,6.113l-2.18,0.091c0,0-2.729,4.181-2.533,5.754
		l0.039,0.284c0.645,5.666,12.98,17.596,12.98,17.596s2.822,1.271,4.229,1.586l0,0c-0.037,0.112-0.037,0.237,0,0.359
		c0.027,0.079-2.324,4.399-2.324,4.399s-8.465,5.322-13.539,8.365h-0.01l0,0c-1.594-2.519-5.816-7.003-5.816-7.003
		s-4.029-3.13-6.482-4.254l0,0l-1.463-0.636l0.002,0.007l-0.002-0.007c-10.186-4.077-23.941-3.647-33.322-0.58l-1.494,0.518l0,0
		c-2.787,1.06-6.689,3.84-6.689,3.84s-4.282,4.417-5.959,6.816c-0.004-0.007-0.015-0.013-0.024-0.02
		c-4.935-3.273-13.281-9.063-13.281-9.063s-2.155-4.398-2.128-4.488c0.045-0.127,0.055-0.253,0.026-0.369
		c1.426-0.249,4.299-1.381,4.299-1.381l9.342-7.68c0,0,3.972-6.502,4.425-9.317l0.045-0.282c0.267-1.564-2.261-5.851-2.261-5.851
		l-2.174-0.196l-14.304-6.776l5.019-10.485l3.733-3.501l-0.504-1.971L257.648-406.042z"/>
</g>
<g id="_x30_2" display="none">
	<g id="XMLID_1402_" display="inline">
		<path id="XMLID_1410_" fill="#006999" stroke="#006999" stroke-miterlimit="10" d="M495.139-270.478l-13.479-19.27l-8.49,11.668
			l-19.512-31.477l-1.025,18.256l-15.814-22.084l2.527-37.921l-11.297,13.056l0.17-34.653l23.533-23.765l-17.754-8.051
			c0,0,38.461-11.979,39.861-11.974c1.404,0.005,21.949,12.286,21.949,12.286s20.664-12.073,22.07-12.063
			c1.402,0.005,39.74,12.37,39.74,12.37l-17.832,7.872l23.293,24l-0.172,34.651l-11.168-13.17l2.146,37.943l-16.031,21.93
			l-0.842-18.266l-19.832,31.277l-8.363-11.754L495.139-270.478z"/>
		<polygon id="XMLID_1407_" fill="#006999" stroke="#29366D" stroke-linejoin="round" stroke-miterlimit="10" points="
			495.318,-307.005 487.361,-307.044 471.99,-323.044 456.252,-360.116 471.369,-387.672 484.959,-387.602 495.672,-376.777 
			506.494,-387.496 520.076,-387.429 534.924,-359.728 518.814,-322.81 503.277,-306.964 		"/>
	</g>
</g>
<g id="_x30_3" display="none">
	<g id="XMLID_1365_" display="inline">
		<path id="XMLID_1381_" fill="#006999" stroke="#006999" stroke-linejoin="round" stroke-miterlimit="10" d="M618.781-399.55
			c14.379-16.303,35.988-24.771,54.242-15.822c5.523,2.702,10.596,6.877,16.369,8.593c3.182,0.952,7.029,1.568,8.486,5.163
			c2.188,5.416-3.324,11.801-1.65,17.479c1.26,4.284,5.672,5.397,9.346,6.002c3.68,0.605,8.109,2.192,8.908,6.637
			c1.105,6.164-6.055,12.016-3.666,17.615c1.521,3.568,5.566,3.538,8.689,4.765c5.547,2.177,9.006,10.325,7.266,17.126
			c-0.773,3.02-2.371,5.605-3.352,8.533c-0.977,2.928-1.197,6.638,0.566,8.96c0.693,0.922,1.617,1.511,2.447,2.243
			c3.939,3.433,5.615,10.362,3.697,15.777c-1.922,5.414-7.313,8.616-11.943,6.946c-1.654-0.597-3.146-1.716-4.715-2.587
			c-6.266-3.484-13.928-2.829-19.707,1.682c-3.998,3.127-7.021,7.854-11.023,10.958c-5.385,4.172-12.398,5.019-18.363,2.203
			c-2.582-1.217-4.945-3.065-7.539-4.25c-5.621-2.583-11.893-1.888-17.727-0.234c-5.842,1.655-11.504,4.229-17.43,5.363
			c-5.92,1.127-12.344,0.66-17.391-3.348c-5.045-4.008-8.143-12.253-5.863-19.049c-4.746-2.515-8.932-6.615-11.979-11.74
			c-2.611-4.396-4.107-11.28-0.689-14.713c1.428-1.429,3.354-1.816,4.982-2.864c8.902-5.679,4.559-25.694,13.34-31.644
			c1.414-0.962,3.021-1.404,4.484-2.24c5.893-3.379,8.186-12.331,8.117-20.321C616.652-387.354,615.938-395.922,618.781-399.55"/>
		<path id="XMLID_1377_" fill="none" stroke="#29366D" stroke-linejoin="round" stroke-miterlimit="10" d="M688.959-380.111
			c1.219,4.362,1.902,9.061,1.955,13.955l0.293,25.824c0.27,23.636-25.914,40.498-32.508,43.166l0,0
			c-6.664-2.628-33.207-18.787-33.473-42.417l-0.078-6.609"/>
		<path id="XMLID_1374_" fill="none" stroke="#29366D" stroke-linejoin="round" stroke-miterlimit="10" d="M622.402-351.281
			c0.771,3.119,3.896,3.603,5.799,1.81c1.896-1.797,2.914-4.954,4.041-7.811c0.938-2.368,2.135-4.771,3.928-5.584
			c3.104-1.413,6.076,2.44,9.188,3.884c3.727,1.728,8.48-1.04,9.361-6.561c0.674-4.234-0.959-8.639-0.621-12.964
			c0.205-2.67,1.254-3.68,2.861-4.966c1.611-1.294,3.801,0.419,5.205,2.168c0.912,1.14,1.443,2.786,2.219,4.125
			c2.516,4.351,7.791,5.87,10.23,1.495c0.943-1.698,1.463-3.827,2.383-5.567c2.85-5.426,9.555-4.787,11.961,1.141"/>
	</g>
</g>
<g id="_x30_4" display="none">
	<path id="XMLID_1469_" display="inline" fill="#006999" stroke="#006999" stroke-linejoin="round" stroke-miterlimit="10" d="
		M884.514-396.585l-1.176,0.004l-25.018,27.986l0.15,0.545l0.516,0.255l1.555,0.035l0.002,0.004l21.125,38.739h-0.008
		l-28.611,10.393l-17.346-6.555l-0.875,0.021l-0.041,0.048l-0.279,0.11l-17.576,5.924l-27.65-11.281l25.207-38.265l0.898-0.167
		l0.223-0.49l-0.014-0.104l-25.656-28.925l-1.17,0.007l-25.021,27.979l0.148,0.559l0.52,0.249l1.545,0.042h0.01l21.037,38.58
		l0.023,0.053l0.021,0.026l0.156,0.287l-9.021,5.319l9.498-0.922l7.756,5.762l9.951,7.068l23.434-3.527l-2.215,6.469l2.646,9.14
		l5.092,2.658l0.199-0.014h0.01l0.109,0.014l5.178-2.472l2.969-9.033c0,0-1.104-4.932-2.334-7.252
		c0.732,0.62,23.895,4.873,23.895,4.873l10.203-6.695l7.957-5.475l9.467,1.271l-8.021-5.48l25.078-38.079h0.008l0.896-0.173
		l0.215-0.49v-0.097L884.514-396.585z M767.576-369.43l20.061,0.47l-0.719,35L767.576-369.43z M788.311-331.409l0.006-0.01
		l0.705-37.521l23.77,0.366l-24.48,37.168V-331.409z M882.854-329.742l-20.707-37.968l21.389,0.49L882.854-329.742z
		 M907.365-366.858l-23.08,35.044l0.643-35.373l0,0l22.434,0.329H907.365z"/>
</g>
<g id="_x30_5" display="none">
	<path id="XMLID_1426_" display="inline" fill="#006999" stroke="#006999" stroke-linejoin="round" stroke-miterlimit="10" d="
		M289.176-225.694l-4.273,2.473l-5.655,12.63l-0.577,3.253l-1.629,10.496l-7.594,4.863l-2.229,0.544l0.123,1.157l4.297,1.921
		l8.635-5.054l1.74-10.216l3.531-9.897l0.004-0.011l0.539-0.354l8.168-1.075l2.104,1.647l0.602,1.468l0.006,0.011l0.096,0.25
		l0.008,0.035l-1.832,16.527l-5.059,27.719l-5.758,16.023l1.252,3.29l2.512-3.766l6.234-5.188l2.236-0.12l-1.729,5.325l-0.152,0.045
		l-0.178,0.082l-9.709,23.018l-0.527,3.055l1.998,25.699l18.664,20.219l0.313,0.063l10.465,0.793l-1.5-2.479l-2.953-2.287
		l-11.32-12.915l0.01-1.918l4.367-0.186l10.436,8.377l3.004,3.992l1.289-2.279l-3.148-14.563l-11.391-16.402l-0.453-0.385
		l-7.455-4.74l0.334-14.992l4.721-5.465l0.096-0.166l3.914,3.678l7.473,12.713l12.061,0.281l0.158-0.033l0.178-0.057l0.033-0.006
		l0.125-0.082l0.088-0.055l8.596-8.467l-3.273-14.402l0.311-5.342l0.205,0.055l8.014,3.562l5.533,4.54l4.154,3.328l-2.18,8.568
		l-0.07,0.582l2.959,19.754l7.688,12.76l2.504,0.773L359.756-108l1.854-13.238l3.301-2.863l1.322,1.383l0.617,17.166l-0.59,3.684
		l0.617,2.844l7.066-7.762l0.191-0.254l-0.273-27.514l-16.166-20.083l-2.477-1.856l-22.852-10.1h-0.02l-0.164,0.051l-7.131,1.042
		l-0.65-2.397l2.137-2.907l8.246,0.733l4.123,0.329l0.102-1.072l-0.324-0.818l-6.758-5.791l-16.793-3.551l-0.855-0.425l-3.459-2.897
		l-1.807-12.482l1.232-7.527l0.088-0.87l-0.836-12.273l-1.555-3.25l-0.826-1.063l-6.729-4.346L289.176-225.694z"/>
</g>
<g id="_x30_6" opacity="0.2">
	<path id="XMLID_1411_" fill="#22567D" stroke="#22567D" stroke-linejoin="round" stroke-miterlimit="10" d="M102.301,146.18
		l0.176,1.034l0.908,0.339l6.559-1.547l0.705-0.701l3.098-10.572l9.574,3.261l0.927-0.233l4.916-5.087l0.271-1.01l-0.084-0.229
		l-0.588-0.529l-17.797-5.947l30.828-96.726l6.674-12.819l-1.048-5.207l-0.049-0.17l-0.081-0.149l-0.119-0.268l-7.691,9.212
		l-30.815,7.466L91.441,28.09L75.947,51.783l-15.54-33.177l13.092-6.445l0.563-1.014l-0.105-0.43L73.403,10.2L52.879,3.012
		l-0.111-0.038L52.52,2.93l-0.254,0.02l-0.218,0.092l-0.283,0.26l-0.108,0.166l-0.07,0.19l-0.03,0.1l-5.632,19.896l0.041,1.134
		l1.152,0.356l11.555-5.692l15.593,33.28L47.907,53.22L36.691,67.837L12.57,92.49L2.452,93.6l0.079,0.166l0.044,0.065l3.234,3.931
		l18.107-1.209l84.225,29.973L102.301,146.18z M30.977,89.514l6.385-10.027L52.1,61.633l24.511-3.876l30.519,65.128L30.977,89.514z
		 M78.292,56.793L95.23,36.735l21.644-3.135l11.073-0.054l-19.137,88.396L78.292,56.793z"/>
</g>
<g id="_x30_6_-_sagittarius" opacity="0.5">
	<g>
		<g>
			<path fill="#E3D4BF" d="M28.797,121.122l-3.246-26.931l-7.993-34.786l25.755-13.803l0.093,0.037l28.163,10.98l0.907-24.965
				l-4.925-7.007l-9.162-2.982l-0.024-0.126c-0.592-3.034-1.824-8.995-2.252-9.842L56.5,11.5c0.538,1.054,2.048,8.709,2.268,9.832
				l9.058,2.947l0.042,0.061l5.052,7.185l-0.003,0.074L71.983,57.25l-0.287-0.109L43.342,46.082L18.06,59.632l7.92,34.486
				l3.192,26.481l25.346-5.371l0.087,0.431L28.797,121.122z"/>
		</g>
		<g>
			
				<rect x="27.718" y="126.998" transform="matrix(0.9236 0.3835 -0.3835 0.9236 52.1714 -7.2695)" fill="#E3D4BF" width="33.2" height="0.433"/>
		</g>
		<g>
			<polygon fill="#E3D4BF" points="76.165,66.045 71.473,56.817 83.23,52.243 83.391,52.648 72.079,57.051 76.32,65.388 
				90.691,54.667 109.337,47.937 132.298,27.971 132.585,28.301 109.521,48.333 90.872,55.065 			"/>
		</g>
		<g>
			<polygon fill="#E3D4BF" points="129.189,72.188 114.083,67.27 109.234,48.184 109.654,48.076 114.445,66.929 129.152,71.72 
				146.639,62.82 146.835,63.208 			"/>
		</g>
		<g>
			<polygon fill="#E3D4BF" points="115.688,101.609 109.221,87.538 109.236,87.466 114.05,67.051 114.475,67.15 109.682,87.491 
				116.081,101.428 			"/>
		</g>
		<g>
			<circle fill="#E3D4BF" cx="59.129" cy="21.217" r="1.742"/>
			<circle opacity="0.32" fill="#E3D4BF" enable-background="new    " cx="59.13" cy="21.217" r="2.613"/>
		</g>
		<g>
			<circle fill="#E3D4BF" cx="67.142" cy="24.742" r="1.743"/>
			<circle opacity="0.32" fill="#E3D4BF" enable-background="new    " cx="67.142" cy="24.741" r="2.613"/>
		</g>
		<g>
			<circle fill="#E3D4BF" cx="72.419" cy="31.04" r="1.743"/>
			<circle opacity="0.32" fill="#E3D4BF" enable-background="new    " cx="72.419" cy="31.04" r="2.613"/>
		</g>
		<g>
			<circle fill="#E3D4BF" cx="70.958" cy="58.042" r="1.743"/>
			<circle opacity="0.32" fill="#E3D4BF" enable-background="new    " cx="70.958" cy="58.041" r="2.613"/>
		</g>
		<g>
			<circle fill="#E3D4BF" cx="83.59" cy="52.994" r="1.742"/>
			<circle opacity="0.32" fill="#E3D4BF" enable-background="new    " cx="83.591" cy="52.994" r="2.613"/>
		</g>
		<g>
			<circle fill="#E3D4BF" cx="59.1" cy="133.868" r="1.744"/>
			<path opacity="0.32" fill="#E3D4BF" enable-background="new    " d="M60.844,135.811c-1.072,0.969-2.725,0.877-3.687-0.195
				c-0.966-1.072-0.879-2.723,0.195-3.689c1.072-0.967,2.723-0.879,3.69,0.195C62.007,133.191,61.921,134.848,60.844,135.811z"/>
		</g>
		<g>
			<circle fill="#E3D4BF" cx="76.234" cy="64.339" r="1.742"/>
			<circle opacity="0.32" fill="#E3D4BF" enable-background="new    " cx="76.234" cy="64.34" r="2.613"/>
		</g>
		<g>
			<path fill="#E3D4BF" d="M27.434,96.085c-0.3,0.916-1.28,1.41-2.196,1.119c-0.915-0.302-1.415-1.285-1.118-2.199
				c0.297-0.916,1.28-1.414,2.194-1.114C27.231,94.188,27.73,95.165,27.434,96.085z"/>
			<path opacity="0.32" fill="#E3D4BF" enable-background="new    " d="M27.524,97.486c-1.073,0.966-2.726,0.88-3.689-0.196
				c-0.966-1.067-0.877-2.726,0.195-3.688c1.073-0.969,2.725-0.877,3.691,0.193C28.683,94.87,28.597,96.521,27.524,97.486z"/>
		</g>
		<g>
			<path fill="#E3D4BF" d="M25.448,88.109c-0.297,0.916-1.281,1.414-2.195,1.115c-0.916-0.297-1.415-1.281-1.117-2.197
				c0.297-0.909,1.281-1.411,2.195-1.112C25.245,86.212,25.748,87.191,25.448,88.109z"/>
			<path opacity="0.32" fill="#E3D4BF" enable-background="new    " d="M25.538,89.514c-1.072,0.967-2.724,0.879-3.69-0.195
				c-0.963-1.074-0.877-2.725,0.195-3.688c1.073-0.969,2.728-0.877,3.69,0.192C26.7,86.896,26.611,88.544,25.538,89.514z"/>
		</g>
		<g>
			<path fill="#E3D4BF" d="M30.092,121.678c-0.297,0.916-1.28,1.416-2.195,1.118c-0.916-0.297-1.415-1.28-1.118-2.194
				c0.299-0.918,1.281-1.412,2.197-1.119C29.889,119.781,30.39,120.764,30.092,121.678z"/>
			<path opacity="0.32" fill="#E3D4BF" enable-background="new    " d="M30.184,123.081c-1.073,0.969-2.725,0.879-3.689-0.19
				c-0.965-1.078-0.878-2.728,0.194-3.695c1.075-0.961,2.728-0.877,3.69,0.199C31.344,120.464,31.256,122.118,30.184,123.081z"/>
		</g>
		<g>
			<circle fill="#E3D4BF" cx="90.216" cy="55.151" r="1.742"/>
			<circle opacity="0.32" fill="#E3D4BF" enable-background="new    " cx="90.216" cy="55.151" r="2.613"/>
		</g>
		<g>
			<circle fill="#E3D4BF" cx="109.167" cy="47.581" r="1.741"/>
			<path opacity="0.32" fill="#E3D4BF" enable-background="new    " d="M110.915,49.524c-1.072,0.965-2.726,0.877-3.688-0.196
				c-0.968-1.072-0.879-2.726,0.192-3.689c1.076-0.965,2.729-0.878,3.69,0.195C112.072,46.906,111.986,48.558,110.915,49.524z"/>
		</g>
		<g>
			<circle fill="#E3D4BF" cx="113.715" cy="67.379" r="1.743"/>
			<path opacity="0.32" fill="#E3D4BF" enable-background="new    " d="M115.462,69.324c-1.073,0.963-2.726,0.877-3.69-0.198
				c-0.965-1.07-0.877-2.723,0.194-3.688c1.074-0.965,2.726-0.878,3.688,0.194C116.624,66.706,116.534,68.357,115.462,69.324z"/>
		</g>
		<g>
			<circle fill="#E3D4BF" cx="147.016" cy="63.563" r="1.743"/>
			<circle opacity="0.32" fill="#E3D4BF" enable-background="new    " cx="147.016" cy="63.564" r="2.612"/>
		</g>
		<g>
			<path fill="#E3D4BF" d="M111.654,87.775c-0.297,0.916-1.278,1.412-2.194,1.119c-0.916-0.301-1.414-1.283-1.117-2.199
				c0.3-0.911,1.277-1.413,2.195-1.114C111.452,85.88,111.952,86.857,111.654,87.775z"/>
			<path opacity="0.32" fill="#E3D4BF" enable-background="new    " d="M111.747,89.184c-1.074,0.963-2.728,0.875-3.69-0.199
				c-0.966-1.072-0.877-2.726,0.194-3.688c1.071-0.965,2.726-0.877,3.69,0.19C112.907,86.563,112.818,88.212,111.747,89.184z"/>
		</g>
		<g>
			<path fill="#E3D4BF" d="M118.089,101.775c-0.299,0.916-1.278,1.412-2.194,1.117c-0.914-0.297-1.416-1.281-1.119-2.197
				c0.299-0.911,1.283-1.411,2.197-1.114C117.889,99.878,118.389,100.861,118.089,101.775z"/>
			<path opacity="0.32" fill="#E3D4BF" enable-background="new    " d="M118.18,103.184c-1.07,0.963-2.726,0.879-3.688-0.197
				c-0.968-1.072-0.878-2.728,0.194-3.688c1.072-0.971,2.726-0.879,3.689,0.193C119.339,100.564,119.253,102.214,118.18,103.184z"/>
		</g>
		<g>
			<circle fill="#E3D4BF" cx="129.719" cy="71.672" r="2.323"/>
			<circle opacity="0.32" fill="#E3D4BF" enable-background="new    " cx="129.721" cy="71.671" r="3.483"/>
			<path opacity="0.32" fill="#E3D4BF" enable-background="new    " d="M129.542,67.267c2.435-0.098,4.485,1.795,4.586,4.228
				c0.099,2.433-1.797,4.485-4.229,4.584s-4.484-1.795-4.582-4.228C125.218,69.418,127.107,67.365,129.542,67.267z"/>
			<circle opacity="0.32" fill="#E3D4BF" enable-background="new    " cx="129.723" cy="71.673" r="5.483"/>
		</g>
		<g>
			<circle fill="#E3D4BF" cx="132.988" cy="27.856" r="2.322"/>
			<path opacity="0.32" fill="#E3D4BF" enable-background="new    " d="M135.32,30.446c-1.432,1.287-3.635,1.17-4.924-0.261
				c-1.283-1.43-1.168-3.631,0.265-4.918c1.43-1.286,3.631-1.169,4.92,0.26C136.866,26.958,136.751,29.159,135.32,30.446z"/>
			<circle opacity="0.32" fill="#E3D4BF" enable-background="new    " cx="132.99" cy="27.857" r="4.409"/>
			<path opacity="0.32" fill="#E3D4BF" enable-background="new    " d="M136.654,31.931c-2.25,2.027-5.717,1.843-7.743-0.41
				c-2.021-2.251-1.839-5.716,0.409-7.741c2.255-2.026,5.724-1.841,7.742,0.411C139.091,26.441,138.907,29.908,136.654,31.931z"/>
		</g>
		<g>
			<path fill="#E3D4BF" d="M57.965,12.596c-0.396,1.219-1.707,1.887-2.928,1.49c-1.219-0.396-1.886-1.708-1.488-2.928
				c0.396-1.218,1.707-1.887,2.926-1.489C57.695,10.065,58.365,11.376,57.965,12.596z"/>
			<circle opacity="0.32" fill="#E3D4BF" enable-background="new    " cx="55.758" cy="11.876" r="3.484"/>
			<circle opacity="0.32" fill="#E3D4BF" enable-background="new    " cx="55.758" cy="11.877" r="4.409"/>
			<circle opacity="0.32" fill="#E3D4BF" enable-background="new    " cx="55.757" cy="11.878" r="5.481"/>
		</g>
		<g>
			<circle fill="#E3D4BF" cx="18.917" cy="60.338" r="2.322"/>
			<circle opacity="0.32" fill="#E3D4BF" enable-background="new    " cx="18.918" cy="60.338" r="3.484"/>
			<circle opacity="0.32" fill="#E3D4BF" enable-background="new    " cx="18.917" cy="60.337" r="4.409"/>
			<circle opacity="0.32" fill="#E3D4BF" enable-background="new    " cx="18.917" cy="60.338" r="5.483"/>
		</g>
		<g>
			<path fill="#E3D4BF" d="M57.319,115.887c-0.397,1.219-1.709,1.887-2.928,1.489c-1.219-0.397-1.886-1.707-1.487-2.929
				c0.396-1.219,1.706-1.885,2.925-1.487C57.049,113.355,57.717,114.665,57.319,115.887z"/>
			<circle opacity="0.32" fill="#E3D4BF" enable-background="new    " cx="55.11" cy="115.169" r="3.483"/>
			<circle opacity="0.32" fill="#E3D4BF" enable-background="new    " cx="55.11" cy="115.168" r="4.409"/>
			<path opacity="0.32" fill="#E3D4BF" enable-background="new    " d="M58.777,119.245c-2.252,2.022-5.718,1.84-7.742-0.412
				c-2.025-2.25-1.842-5.715,0.41-7.737c2.25-2.027,5.715-1.847,7.741,0.405C61.209,113.753,61.03,117.221,58.777,119.245z"/>
		</g>
	</g>
</g>
</svg>
