<?xml version="1.0" encoding="utf-8"?>
<!-- Generator: Adobe Illustrator 16.0.0, SVG Export Plug-In . SVG Version: 6.00 Build 0)  -->
<!DOCTYPE svg PUBLIC "-//W3C//DTD SVG 1.1//EN" "http://www.w3.org/Graphics/SVG/1.1/DTD/svg11.dtd">
<svg version="1.1" id="Layer_1" xmlns="http://www.w3.org/2000/svg" xmlns:xlink="http://www.w3.org/1999/xlink" x="0px" y="0px"
	 width="150px" height="150px" viewBox="0 0 150 150" enable-background="new 0 0 150 150" xml:space="preserve">
<g id="Layer_2" display="none">
	<g display="inline">
		<g>
			<path fill="#FFFFFF" d="M47.25,97.352c7.724-13.386,20.766-22.596,28.499-35.999c1.614-2.798-2.707-5.314-4.317-2.523
				c-7.723,13.385-20.766,22.596-28.499,35.999C41.319,97.626,45.64,100.143,47.25,97.352L47.25,97.352z"/>
		</g>
	</g>
	
		<rect display="inline" fill="#29366D" stroke="#FFFFFF" stroke-linejoin="round" stroke-miterlimit="10" width="150" height="150"/>
</g>
<g id="Layer_1_1_" display="none">
	<g id="XMLID_21197_" display="inline">
		<g id="XMLID_763_">
			<g id="XMLID_1331_">
				<path id="XMLID_1484_" fill="#006999" stroke="#006999" stroke-linejoin="round" stroke-miterlimit="10" d="M-243.71-167.366
					l1.581,0.239l3.199-1.152l0.798-4.07l-0.716-0.364l-0.621,0.461l-1.672,1.848l-2.633-1.008l-1.969-5.481l3.151-5.317
					l5.171,0.398l0.179,0.292l0.108,0.188l-4.056,1.725l-1.867,3.499l-0.021,0.081l0.015,0.072l0.118,0.096l4.557-0.159l0.453-0.318
					l0.16,0.337l2.247,6.339l1.341,3.967l0.081,0.356l5.5,5.542l0.585-0.028l5.769-5.813l1.366-3.935l2.326-6.345l0.162-0.324
					l0.448,0.321l4.553,0.202l0.121-0.094l-0.004-0.151l-1.831-3.519l-4.014-1.761l0.11-0.189l0.182-0.29l5.174-0.349l3.1,5.351
					l-2.023,5.46l-2.643,0.982l-1.653-1.863l-0.616-0.467l-0.72,0.356l0.757,4.077l3.188,1.185l1.582-0.222l5.457-6.271
					l-2.412-14.769l-0.62-0.637l-0.017-0.015l-0.146-0.063l-10.677-1.475l-3.638,3.929l-0.153,0.516l-6.365,0.312l-0.208-0.858
					l-3.6-3.966l-10.693,1.369l-0.143,0.059l-0.018,0.015l-0.628,0.631l-2.558,14.744L-243.71-167.366z"/>
				<path id="XMLID_1482_" fill="#006999" stroke="#006999" stroke-linejoin="round" stroke-miterlimit="10" d="M-158.244-140.266
					l0.6,0.325l7.051-1.794l4.562-3.066l5.488-4.414l0.547,0.327l3.954,2.632l0.156-0.021l0.079-0.136l0.257-4.125l-1.351-2.62
					l0.614,0.054l3.828-2.101l0.477-10.37l-0.584-0.376l-0.479,0.498l-1.18,3.549l-6.85,2.556l-3.507-3.105l-4.475-1.759
					l-0.875-7.263l2.613-2.678l0.224-0.653l-0.602-0.344l-9.002,5.174l-0.109,4.367l0.581,0.808l-2.53,0.119l-3.548,2.119
					l-0.063,0.063l-0.024,0.073l0.056,0.148l4.148,2.309l0.575-0.039l-0.015,0.329l-0.021,0.059l-1.401,6.882l-0.924,4.211
					l-0.757,5.086L-158.244-140.266z"/>
				<g id="XMLID_1477_">
					<path id="XMLID_1480_" fill="#006999" stroke="#006999" stroke-linejoin="round" stroke-miterlimit="10" d="M-319.71-139.51
						l5.915-0.125l2.621-2.567l-0.81-7.311l-0.496-1.116l4.444-1.451l-1.486-0.826l-3.895-2.037l-0.145-7.265l5.691-0.289
						l5.68,3.512l0.147,0.017l0.111-0.094l-1.744-3.76l-1.552-3.652l3.848-5.323l-3.085,1.95l-5.653,3.475l-10.486,3.659
						l-4.549,10.736l-0.003,4.965L-319.71-139.51z"/>
					<path id="XMLID_1478_" fill="#006999" stroke="#006999" stroke-linejoin="round" stroke-miterlimit="10" d="M-299.443-158.859
						l0.499,1.113l-4.444,1.454l1.483,0.824l3.897,2.036l0.146,7.265l-5.691,0.289l-5.68-3.512l-0.147-0.017l-0.114,0.095
						l1.747,3.759l1.529,2.796l-3.829,6.18l3.088-1.95l5.654-3.475l9.36-2.416l5.673-11.979l0.004-4.969l-5.448-7.499l-8.536,2.692
						L-299.443-158.859z"/>
				</g>
				<path id="XMLID_1420_" fill="#006999" stroke="#006999" stroke-linejoin="round" stroke-miterlimit="10" d="M-405.513-13.663
					l0.032,0.022l13.738,6.751l7.333-5.128l1.224,2.259l2.745,1.5l0.092,0.023l0.083-0.017l0.114-0.133l-0.108-3.655l-0.01-0.376
					l12.791-6.304l0.034-0.019l2.488-1.007l2.106-0.417l-4.842-1.928l-12.361-5.603l0.034-0.374l0.219-3.648l-0.107-0.139
					l-0.175,0.002l-2.789,1.418l-1.276,2.144l-7.188-5.399l-13.937,6.333l-0.035,0.022l0.004,0.007l-0.079,0.098l0.077,0.217
					l0.231-0.005l10.416-2.771l7.205,5.834l-0.084,7.324l-7.404,5.74l-10.322-3.076l-0.237-0.018l-0.083,0.215l0.076,0.101
					L-405.513-13.663z"/>
				<path id="XMLID_1411_" fill="#006999" stroke="#006999" stroke-linejoin="round" stroke-miterlimit="10" d="M-359.407,74.423
					l0.046,0.245l0.238,0.08l1.718-0.366l0.185-0.166l0.812-2.496l2.51,0.771l0.241-0.056l1.289-1.2l0.071-0.239l-0.021-0.055
					l-0.155-0.125l-4.664-1.404l8.079-22.836l1.749-3.026l-0.274-1.229l-0.012-0.04l-0.021-0.035l-0.032-0.063l-2.015,2.175
					l-8.077,1.763l-4.512,0.424l-4.061,5.595l-4.073-7.833l3.431-1.521l0.147-0.239l-0.027-0.102l-0.146-0.122l-5.378-1.697
					l-0.029-0.009l-0.065-0.011l-0.066,0.005l-0.057,0.021l-0.074,0.062l-0.028,0.039l-0.019,0.045l-0.008,0.023l-1.476,4.697
					l0.011,0.268l0.302,0.084l3.028-1.344l4.086,7.857l-6.908,0.115l-2.939,3.451l-6.321,5.82l-2.652,0.263l0.021,0.038l0.012,0.016
					l0.847,0.928l4.746-0.285l22.073,7.076L-359.407,74.423z M-378.098,61.045l1.673-2.367l3.862-4.216l6.424-0.915l7.998,15.377
					L-378.098,61.045z M-365.699,53.319l4.438-4.735l5.671-0.74l2.902-0.013L-357.7,68.7L-365.699,53.319z"/>
				<g id="XMLID_1384_">
					<g id="XMLID_1393_">
						<path id="XMLID_1401_" fill="#006999" stroke="#006999" stroke-linejoin="round" stroke-miterlimit="10" d="M-101.579-82.9
							l4.124-1.27l1.876-2.77l-2.67-3.39l0.441-2.099l2.5-0.418l0.058-1.207l0.732-0.384c0,0,0.078-0.934,0.19-0.952
							c0.112-0.019,1.947,0.075,1.947,0.075l0.315-1.952l0.765-0.401l2.27,1.773l5.441-1.312l6.601,4.536l0.528,6.502l-4.86,6.446
							l-6.831-0.125l-4.363-0.012l-5.157,4.409"/>
					</g>
					<g id="XMLID_1387_">
						<path id="XMLID_1390_" fill="#006999" stroke="#006999" stroke-linejoin="round" stroke-miterlimit="10" d="M-110.284-99.499
							l3.39-2.67l3.346,0.032l1.27,4.124l1.978,0.83l1.767-1.819l1.025,0.64l0.731-0.384c0,0,0.813,0.467,0.893,0.385
							c0.078-0.082,1.045-1.644,1.045-1.644l1.786,0.85l0.764-0.4l-0.168-2.875l4.173-3.731l0.021-8.008l-5.049-4.131l-8.065,0.333
							l-3.781,5.69l-2.472,3.596l-6.56,1.735"/>
					</g>
				</g>
				<g id="XMLID_1332_">
					<g id="XMLID_1355_">
						<polygon id="XMLID_1362_" fill="#006999" stroke="#006999" stroke-linejoin="round" stroke-miterlimit="10" points="
							-375.381,-105.003 -366.031,-104.526 -358.349,-109.743 -354.408,-107.682 -358.085,-106.729 -358.139,-101.212 
							-352.093,-95.132 -349.363,-87.495 -351.99,-83.271 -359.99,-79.037 -370.006,-81.791 -370.382,-89.407 -376.481,-89.97 
							-379.251,-96.267 -374.452,-101.196 						"/>
						<polygon id="XMLID_1359_" fill="#29366D" stroke="#29366D" stroke-linejoin="round" stroke-miterlimit="10" points="
							-371.09,-91.827 -374.751,-92.084 -376,-95.612 -373.963,-98.681 						"/>
					</g>
					<polygon id="XMLID_1339_" fill="#006999" stroke="#006999" stroke-linejoin="round" stroke-miterlimit="10" points="
						-350.338,-107.081 -344.118,-104.205 -341.592,-105.5 -343.327,-107.836 					"/>
					<polygon id="XMLID_1336_" fill="#006999" stroke="#006999" stroke-linejoin="round" stroke-miterlimit="10" points="
						-357.352,-111.781 -350.529,-111.135 -348.578,-113.197 -350.99,-114.823 					"/>
					<polygon id="XMLID_1333_" fill="#006999" stroke="#006999" stroke-linejoin="round" stroke-miterlimit="10" points="
						-367.127,-108.288 -360.974,-111.305 -360.389,-114.083 -363.295,-114.207 					"/>
				</g>
			</g>
		</g>
	</g>
</g>
<g id="_x30_1" display="none">
	<path id="XMLID_1475_" display="inline" fill="#006999" d="M257.648-406.042l-3.631,19.852c0,0,4.582,11.4,9.342,14.698
		c-0.096,0.072-0.209,0.313-0.209,0.313l2.91,12.017c0,0,17.217,13.595,18.777,14.838l0,0c-0.854,2.725-1.764,8.723-1.764,8.723
		s-0.119,1.179-0.146,1.783c-2.488-0.803-16.082-8.061-16.082-8.061l-5.72-7.319l-10.711-13.043l-3.168-0.632l10.285,20.335
		l25.047,15.792c0,0,0.259-0.034,0.36-0.088c0.084,1.284,0.209,2.573,0.392,3.873c-0.065,0.005-0.129,0.014-0.199,0.04
		c-0.729,0.227-22.997,13.267-22.997,13.267l-4.57,14.579c0,0,0.567,0.441,0.929,0.441c0.237,0.009,0.743-0.167,0.743-0.167
		l2.117-3.931l5.817-9.585c0,0,17.185-7.604,19.457-8.232c0.417,1.612,0.922,3.188,1.497,4.707
		c-0.852,0.522-17.727,17.087-17.727,17.087l-0.832,14.193l0.681,0.237l0.955-0.366l1.038-4.048l3.091-9.883
		c0,0,13.751-10.683,15.437-11.638c0.983,1.688,2.09,3.243,3.325,4.627c-1.438,1.851-8.69,17.969-8.69,17.969
		s1.666,10.829,3.437,11.315c0.101,0.024,0.198,0.039,0.295,0.046c0.427,0.002,1.082-0.66,1.082-0.66l-0.319-3.532l-0.396-8.411
		c0,0,7.398-11.819,8.568-13.192c0.096,0.081,0.318,0.229,0.318,0.229l22.156,7.827l2.613-0.023l20.885-6.76
		c0,0,0.227-0.143,0.348-0.216c1.115,1.448,7.949,13.57,7.949,13.57l-0.785,8.388l-0.48,3.511l1.049,0.708l0.299-0.034l3.949-11.148
		c0,0-6.52-16.464-7.854-18.343c1.287-1.327,2.465-2.833,3.516-4.473c1.641,1.024,14.902,12.328,14.902,12.328l2.625,10.021
		l0.863,4.096l0.941,0.398l0.684-0.199l-0.193-14.217c0,0-16.248-17.441-16.92-17.888c0.641-1.488,1.219-3.043,1.713-4.624
		c2.227,0.723,19.059,9.105,19.059,9.105l5.383,9.836l1.932,4.027l0.738,0.204l0.949-0.405l-3.9-14.765
		c0,0-21.656-14.047-22.369-14.311c-0.068-0.032-0.143-0.043-0.209-0.045c0.242-1.288,0.438-2.572,0.574-3.847
		c0.105,0.06,0.357,0.095,0.357,0.095l25.74-14.621l11.199-19.841l-3.184,0.484l-11.287,12.54l-6.061,7.039
		c0,0-13.914,6.632-16.434,7.309c-0.006-0.601-0.064-1.778-0.064-1.778s-0.621-6.107-1.297-8.84v-0.005
		c1.873-1.359,19.365-13.907,19.365-13.907l3.465-11.883c0,0-0.104-0.229-0.201-0.311l0,0c4.906-3.076,10.008-14.255,10.008-14.255
		l-2.717-20.001L361.627-414.5l-0.59,1.959l3.572,3.658l4.541,10.705l-14.604,6.113l-2.18,0.091c0,0-2.729,4.181-2.533,5.754
		l0.039,0.284c0.645,5.666,12.98,17.596,12.98,17.596s2.822,1.271,4.229,1.586l0,0c-0.037,0.112-0.037,0.237,0,0.359
		c0.027,0.079-2.324,4.399-2.324,4.399s-8.465,5.322-13.539,8.365h-0.01l0,0c-1.594-2.519-5.816-7.003-5.816-7.003
		s-4.029-3.13-6.482-4.254l0,0l-1.463-0.636l0.002,0.007l-0.002-0.007c-10.186-4.077-23.941-3.647-33.322-0.58l-1.494,0.518l0,0
		c-2.787,1.06-6.689,3.84-6.689,3.84s-4.282,4.417-5.959,6.816c-0.004-0.007-0.015-0.013-0.024-0.02
		c-4.935-3.273-13.281-9.063-13.281-9.063s-2.155-4.398-2.128-4.488c0.045-0.127,0.055-0.253,0.026-0.369
		c1.426-0.249,4.299-1.381,4.299-1.381l9.342-7.68c0,0,3.972-6.502,4.425-9.317l0.045-0.282c0.267-1.564-2.261-5.851-2.261-5.851
		l-2.174-0.196l-14.304-6.776l5.019-10.485l3.733-3.501l-0.504-1.971L257.648-406.042z"/>
</g>
<g id="_x30_2" display="none">
	<g id="XMLID_1402_" display="inline">
		<path id="XMLID_1410_" fill="#006999" stroke="#006999" stroke-miterlimit="10" d="M495.139-270.478l-13.479-19.27l-8.49,11.668
			l-19.512-31.477l-1.025,18.256l-15.814-22.084l2.527-37.921l-11.297,13.056l0.17-34.653l23.533-23.765l-17.754-8.051
			c0,0,38.461-11.979,39.861-11.974c1.404,0.005,21.949,12.286,21.949,12.286s20.664-12.073,22.07-12.063
			c1.402,0.005,39.74,12.37,39.74,12.37l-17.832,7.872l23.293,24l-0.172,34.651l-11.168-13.17l2.146,37.943l-16.031,21.93
			l-0.842-18.266l-19.832,31.277l-8.363-11.754L495.139-270.478z"/>
		<polygon id="XMLID_1407_" fill="#006999" stroke="#29366D" stroke-linejoin="round" stroke-miterlimit="10" points="
			495.318,-307.005 487.361,-307.044 471.99,-323.044 456.252,-360.116 471.369,-387.672 484.959,-387.602 495.672,-376.777 
			506.494,-387.496 520.076,-387.429 534.924,-359.728 518.814,-322.81 503.277,-306.964 		"/>
	</g>
</g>
<g id="_x30_3" display="none">
	<g id="XMLID_1365_" display="inline">
		<path id="XMLID_1381_" fill="#006999" stroke="#006999" stroke-linejoin="round" stroke-miterlimit="10" d="M618.781-399.55
			c14.379-16.303,35.988-24.771,54.242-15.822c5.523,2.702,10.596,6.877,16.369,8.593c3.182,0.952,7.029,1.568,8.486,5.163
			c2.188,5.416-3.324,11.801-1.65,17.479c1.26,4.284,5.672,5.397,9.346,6.002c3.68,0.605,8.109,2.192,8.908,6.637
			c1.105,6.164-6.055,12.016-3.666,17.615c1.521,3.568,5.566,3.538,8.689,4.765c5.547,2.177,9.006,10.325,7.266,17.126
			c-0.773,3.02-2.371,5.605-3.352,8.533c-0.977,2.928-1.197,6.638,0.566,8.96c0.693,0.922,1.617,1.511,2.447,2.243
			c3.939,3.433,5.615,10.362,3.697,15.777c-1.922,5.414-7.313,8.616-11.943,6.946c-1.654-0.597-3.146-1.716-4.715-2.587
			c-6.266-3.484-13.928-2.829-19.707,1.682c-3.998,3.127-7.021,7.854-11.023,10.958c-5.385,4.172-12.398,5.019-18.363,2.203
			c-2.582-1.217-4.945-3.065-7.539-4.25c-5.621-2.583-11.893-1.888-17.727-0.234c-5.842,1.655-11.504,4.229-17.43,5.363
			c-5.92,1.127-12.344,0.66-17.391-3.348c-5.045-4.008-8.143-12.253-5.863-19.049c-4.746-2.515-8.932-6.615-11.979-11.74
			c-2.611-4.396-4.107-11.28-0.689-14.713c1.428-1.429,3.354-1.816,4.982-2.864c8.902-5.679,4.559-25.694,13.34-31.644
			c1.414-0.962,3.021-1.404,4.484-2.24c5.893-3.379,8.186-12.331,8.117-20.321C616.652-387.354,615.938-395.922,618.781-399.55"/>
		<path id="XMLID_1377_" fill="none" stroke="#29366D" stroke-linejoin="round" stroke-miterlimit="10" d="M688.959-380.111
			c1.219,4.362,1.902,9.061,1.955,13.955l0.293,25.824c0.27,23.636-25.914,40.498-32.508,43.166l0,0
			c-6.664-2.628-33.207-18.787-33.473-42.417l-0.078-6.609"/>
		<path id="XMLID_1374_" fill="none" stroke="#29366D" stroke-linejoin="round" stroke-miterlimit="10" d="M622.402-351.281
			c0.771,3.119,3.896,3.603,5.799,1.81c1.896-1.797,2.914-4.954,4.041-7.811c0.938-2.368,2.135-4.771,3.928-5.584
			c3.104-1.413,6.076,2.44,9.188,3.884c3.727,1.728,8.48-1.04,9.361-6.561c0.674-4.234-0.959-8.639-0.621-12.964
			c0.205-2.67,1.254-3.68,2.861-4.966c1.611-1.294,3.801,0.419,5.205,2.168c0.912,1.14,1.443,2.786,2.219,4.125
			c2.516,4.351,7.791,5.87,10.23,1.495c0.943-1.698,1.463-3.827,2.383-5.567c2.85-5.426,9.555-4.787,11.961,1.141"/>
	</g>
</g>
<g id="_x30_4" display="none">
	<path id="XMLID_1469_" display="inline" fill="#006999" stroke="#006999" stroke-linejoin="round" stroke-miterlimit="10" d="
		M884.514-396.585l-1.176,0.004l-25.018,27.986l0.15,0.545l0.516,0.255l1.555,0.035l0.002,0.004l21.125,38.739h-0.008
		l-28.611,10.393l-17.346-6.555l-0.875,0.021l-0.041,0.048l-0.279,0.11l-17.576,5.924l-27.65-11.281l25.207-38.265l0.898-0.167
		l0.223-0.49l-0.014-0.104l-25.656-28.925l-1.17,0.007l-25.021,27.979l0.148,0.559l0.52,0.249l1.545,0.042h0.01l21.037,38.58
		l0.023,0.053l0.021,0.026l0.156,0.287l-9.021,5.319l9.498-0.922l7.756,5.762l9.951,7.068l23.434-3.527l-2.215,6.469l2.646,9.14
		l5.092,2.658l0.199-0.014h0.01l0.109,0.014l5.178-2.472l2.969-9.033c0,0-1.104-4.932-2.334-7.252
		c0.732,0.62,23.895,4.873,23.895,4.873l10.203-6.695l7.957-5.475l9.467,1.271l-8.021-5.48l25.078-38.079h0.008l0.896-0.173
		l0.215-0.49v-0.097L884.514-396.585z M767.576-369.43l20.061,0.47l-0.719,35L767.576-369.43z M788.311-331.409l0.006-0.01
		l0.705-37.521l23.77,0.366l-24.48,37.168V-331.409z M882.854-329.742l-20.707-37.968l21.389,0.49L882.854-329.742z
		 M907.365-366.858l-23.08,35.044l0.643-35.373l0,0l22.434,0.329H907.365z"/>
</g>
<g id="_x30_5" opacity="0.2">
	<path id="XMLID_1426_" fill="#22567D" stroke="#22567D" stroke-linejoin="round" stroke-miterlimit="10" d="M44.686,1.743
		l-4.274,2.473l-5.657,12.63l-0.577,3.253L32.55,30.595l-7.592,4.863l-2.231,0.544l0.123,1.157l4.298,1.921l8.633-5.054l1.74-10.216
		l3.532-9.897l0.004-0.011l0.54-0.353l8.167-1.075l2.103,1.647l0.601,1.468l0.005,0.011l0.097,0.25l0.008,0.035l-1.833,16.527
		l-5.059,27.719l-5.757,16.023l1.252,3.289l2.512-3.766l6.235-5.189l2.236-0.12l-1.729,5.324l-0.152,0.045l-0.177,0.082
		l-9.71,23.019l-0.526,3.056l1.998,25.698l18.663,20.22l0.313,0.063l10.464,0.793l-1.5-2.479l-2.952-2.287L55.54,130.984
		l0.011-1.918l4.366-0.187l10.436,8.377l3.005,3.992l1.288-2.278l-3.149-14.564l-11.389-16.401l-0.454-0.385l-7.455-4.74
		l0.333-14.991l4.719-5.466l0.096-0.166l3.915,3.679l7.473,12.713l12.058,0.281l0.158-0.033l0.178-0.058l0.033-0.006l0.125-0.082
		l0.088-0.056l8.596-8.467l-3.271-14.401l0.309-5.342l0.205,0.055l8.016,3.562l5.531,4.541l4.154,3.328l-2.18,8.567l-0.07,0.582
		l2.959,19.754l7.688,12.76l2.504,0.772l-0.547-4.973l1.854-13.238l3.301-2.862l1.322,1.383l0.616,17.166l-0.59,3.685l0.617,2.845
		l7.067-7.763l0.19-0.254l-0.272-27.515l-16.166-20.083l-2.478-1.856l-22.851-10.1h-0.021l-0.164,0.051l-7.131,1.042l-0.65-2.397
		l2.137-2.907l8.246,0.733l4.123,0.329l0.1-1.072l-0.322-0.818l-6.76-5.791L70.646,46.46l-0.855-0.425l-3.459-2.897l-1.807-12.482
		l1.234-7.527l0.088-0.87L65.008,9.986l-1.556-3.25l-0.826-1.062l-6.728-4.346L44.686,1.743z"/>
</g>
<g id="_x30_5_scorpio" opacity="0.5">
	<g>
		<g>
			<polygon fill="#E3D4BF" points="96.01,140.002 95.906,140.034 80.484,144.83 74.721,140.289 68.798,127.816 76.992,122.385 
				77.27,122.809 69.443,127.996 75.156,140.016 80.59,144.264 95.65,139.584 105.963,118.213 114.336,99.391 105.543,96.264 
				70.683,83.172 70.637,83.111 49.886,55.258 43.649,33.693 25.975,7.028 26.396,6.75 44.123,33.515 50.361,55.074 71,82.75 
				105.717,95.785 115.021,99.1 106.422,118.424 			"/>
		</g>
		<g>
			<polygon fill="#E3D4BF" points="60.927,12.201 43.674,34.26 41.746,6.416 42.252,6.38 44.087,32.91 60.528,11.888 			"/>
		</g>
		<g>
			<path fill="#E3D4BF" d="M81.871,143.664c0.881,0.688,1.035,1.959,0.346,2.844c-0.688,0.881-1.959,1.037-2.84,0.35
				c-0.885-0.688-1.039-1.963-0.352-2.848C79.713,143.129,80.992,142.975,81.871,143.664z"/>
			<path opacity="0.32" fill="#E3D4BF" enable-background="new    " d="M83.438,144.121c0.633,1.557-0.121,3.324-1.678,3.956
				c-1.559,0.628-3.326-0.126-3.957-1.683c-0.625-1.556,0.129-3.328,1.684-3.955S82.814,142.564,83.438,144.121z"/>
		</g>
		<g>
			<path fill="#E3D4BF" d="M75.488,138.672c0.879,0.688,1.04,1.963,0.346,2.844c-0.688,0.883-1.961,1.035-2.84,0.348
				c-0.885-0.688-1.039-1.959-0.35-2.842C73.336,138.137,74.607,137.98,75.488,138.672z"/>
			<circle opacity="0.32" fill="#E3D4BF" enable-background="new    " cx="74.24" cy="140.267" r="3.038"/>
		</g>
		<g>
			<path fill="#E3D4BF" d="M69.834,127.82c0.879,0.688,1.035,1.959,0.347,2.842c-0.689,0.885-1.963,1.037-2.843,0.35
				c-0.882-0.689-1.038-1.965-0.35-2.846C67.679,127.285,68.951,127.131,69.834,127.82z"/>
			<path opacity="0.32" fill="#E3D4BF" enable-background="new    " d="M71.402,128.277c0.629,1.559-0.125,3.326-1.68,3.957
				c-1.557,0.623-3.327-0.127-3.956-1.685c-0.626-1.555,0.125-3.325,1.682-3.954C69.003,125.969,70.773,126.719,71.402,128.277z"/>
		</g>
		<g>
			<path fill="#E3D4BF" d="M78.291,120.293c0.879,0.688,1.037,1.961,0.35,2.84c-0.688,0.885-1.961,1.039-2.848,0.35
				c-0.879-0.688-1.033-1.963-0.346-2.844C76.134,119.758,77.412,119.6,78.291,120.293z"/>
			<path opacity="0.32" fill="#E3D4BF" enable-background="new    " d="M79.861,120.748c0.627,1.561-0.125,3.328-1.68,3.957
				c-1.56,0.625-3.329-0.127-3.958-1.684c-0.623-1.553,0.127-3.328,1.682-3.955C77.461,118.441,79.234,119.191,79.861,120.748z"/>
		</g>
		<g>
			<path fill="#E3D4BF" d="M107.354,116.016c0.879,0.688,1.035,1.963,0.347,2.844c-0.688,0.882-1.966,1.037-2.847,0.349
				c-0.879-0.688-1.033-1.959-0.346-2.845C105.197,115.48,106.467,115.326,107.354,116.016z"/>
			<path opacity="0.32" fill="#E3D4BF" enable-background="new    " d="M108.922,116.475c0.627,1.557-0.125,3.326-1.684,3.953
				c-1.555,0.629-3.324-0.123-3.951-1.68c-0.631-1.557,0.121-3.326,1.682-3.955C106.521,114.164,108.291,114.92,108.922,116.475z"/>
		</g>
		<g>
			<path fill="#E3D4BF" d="M115.217,97.736c0.881,0.688,1.037,1.963,0.348,2.846c-0.688,0.881-1.959,1.034-2.842,0.348
				c-0.885-0.688-1.039-1.961-0.35-2.844S114.336,97.049,115.217,97.736z"/>
			<path opacity="0.32" fill="#E3D4BF" enable-background="new    " d="M116.785,98.195c0.631,1.557-0.123,3.328-1.676,3.955
				c-1.562,0.627-3.328-0.123-3.959-1.68c-0.629-1.56,0.129-3.328,1.684-3.957C114.387,95.887,116.162,96.639,116.785,98.195z"/>
		</g>
		<g>
			<path fill="#E3D4BF" d="M104.568,93.27c0.885,0.688,1.037,1.961,0.352,2.84c-0.689,0.886-1.967,1.039-2.846,0.349
				c-0.881-0.688-1.035-1.961-0.346-2.842C102.414,92.734,103.688,92.578,104.568,93.27z"/>
			<path opacity="0.32" fill="#E3D4BF" enable-background="new    " d="M106.141,93.725c0.629,1.561-0.129,3.328-1.684,3.955
				c-1.555,0.629-3.328-0.125-3.953-1.68c-0.627-1.557,0.123-3.33,1.68-3.957C103.742,91.418,105.51,92.17,106.141,93.725z"/>
		</g>
		<g>
			<circle fill="#E3D4BF" cx="49.244" cy="53.855" r="2.026"/>
			<circle opacity="0.32" fill="#E3D4BF" enable-background="new    " cx="49.244" cy="53.854" r="3.039"/>
		</g>
		<g>
			<circle fill="#E3D4BF" cx="26.897" cy="6.801" r="2.026"/>
			<circle opacity="0.32" fill="#E3D4BF" enable-background="new    " cx="26.896" cy="6.802" r="3.038"/>
		</g>
		<g>
			<circle fill="#E3D4BF" cx="41.913" cy="5.688" r="2.026"/>
			<circle opacity="0.32" fill="#E3D4BF" enable-background="new    " cx="41.912" cy="5.687" r="3.038"/>
		</g>
		<g>
			<circle fill="#E3D4BF" cx="60.641" cy="11.334" r="2.025"/>
			<circle opacity="0.32" fill="#E3D4BF" enable-background="new    " cx="60.64" cy="11.334" r="3.039"/>
		</g>
		<g>
			<circle fill="#E3D4BF" cx="70.129" cy="83.047" r="2.701"/>
			<path opacity="0.32" fill="#E3D4BF" enable-background="new    " d="M73.887,81.533c0.834,2.072-0.168,4.434-2.242,5.271
				c-2.075,0.838-4.435-0.166-5.272-2.238c-0.836-2.076,0.169-4.438,2.244-5.275C70.69,78.457,73.047,79.459,73.887,81.533z"/>
			<circle opacity="0.32" fill="#E3D4BF" enable-background="new    " cx="70.131" cy="83.048" r="5.128"/>
			<circle opacity="0.32" fill="#E3D4BF" enable-background="new    " cx="70.131" cy="83.047" r="6.375"/>
		</g>
		<g>
			<circle fill="#E3D4BF" cx="43.169" cy="33.673" r="2.7"/>
			<circle opacity="0.32" fill="#E3D4BF" enable-background="new    " cx="43.169" cy="33.672" r="4.05"/>
			<circle opacity="0.32" fill="#E3D4BF" enable-background="new    " cx="43.169" cy="33.673" r="5.127"/>
			<circle opacity="0.32" fill="#E3D4BF" enable-background="new    " cx="43.169" cy="33.672" r="6.375"/>
		</g>
		<g>
			<path fill="#E3D4BF" d="M98.201,137.576c1.178,0.922,1.383,2.617,0.465,3.795c-0.92,1.174-2.617,1.379-3.793,0.461
				c-1.17-0.918-1.381-2.615-0.459-3.789C95.33,136.865,97.025,136.659,98.201,137.576z"/>
			<path opacity="0.32" fill="#E3D4BF" enable-background="new    " d="M100.295,138.189c0.838,2.072-0.164,4.434-2.238,5.271
				c-2.078,0.838-4.436-0.166-5.274-2.24c-0.835-2.076,0.168-4.436,2.243-5.271C97.1,135.109,99.457,136.115,100.295,138.189z"/>
			<circle opacity="0.32" fill="#E3D4BF" enable-background="new    " cx="96.539" cy="139.704" r="5.128"/>
			<path opacity="0.32" fill="#E3D4BF" enable-background="new    " d="M102.451,137.32c1.316,3.266-0.264,6.979-3.529,8.296
				c-3.262,1.317-6.979-0.263-8.297-3.526c-1.313-3.265,0.266-6.979,3.529-8.299C97.418,132.473,101.133,134.053,102.451,137.32z"/>
		</g>
	</g>
</g>
</svg>
